
        <svg xmlns="http://www.w3.org/2000/svg" xmlns:xlink="http://www.w3.org/1999/xlink" version="1.1" width="3171.4285714285716" 
        height="1631.8126853445422" viewBox="0 -8.571428571428571 3171.4285714285716 1631.8126853445422">
			
			<g transform="scale(8.571428571428571) translate(10, 10)">
				<defs id="SvgjsDefs1329"><linearGradient id="SvgjsLinearGradient1334"><stop id="SvgjsStop1335" stop-color="#8f5e25" offset="0"></stop><stop id="SvgjsStop1336" stop-color="#fbf4a1" offset="0.5"></stop><stop id="SvgjsStop1337" stop-color="#8f5e25" offset="1"></stop></linearGradient><linearGradient id="SvgjsLinearGradient1338"><stop id="SvgjsStop1339" stop-color="#8f5e25" offset="0"></stop><stop id="SvgjsStop1340" stop-color="#fbf4a1" offset="0.5"></stop><stop id="SvgjsStop1341" stop-color="#8f5e25" offset="1"></stop></linearGradient></defs><g id="SvgjsG1330" featureKey="symbolFeature-0" transform="matrix(1.6966757927040803,0,0,1.6966757927040803,111.4703036073508,-24.75346918823776)" fill="url(#SvgjsLinearGradient1334)"><g xmlns="http://www.w3.org/2000/svg"><path d="M38.5,47.8c0.2,0.1,0.3-0.2,0.2-0.3c-3.1-2.3-4.4-4.8-3.3-6.5C31.1,45,36.1,46.9,38.5,47.8z"></path><path d="M43.5,46.6c0,0,0.9-1.6-1.6-1.6c-2.8,0-2.1,1.6-2.1,1.6C41.6,46.1,43.5,46.6,43.5,46.6z"></path><path d="M47.8,55.3c0,0-3.5-2.4-4.5-3c-1.3-0.8-2.8-0.4-4.1,0.3c-1.3-0.7-2.8-1.1-4.1-0.3c-1,0.6-4.5,3-4.5,3s2.2,5,8.5,4.9   C45.6,60.3,47.8,55.3,47.8,55.3z M44.8,55.6c-2.2-0.1-5.6,0.2-5.6,0.2s-3.3-0.3-5.6-0.2l-0.3,0c1.5-0.2,3.4-0.6,3.4-0.6   s1.3,0.3,2.5,0.4c1.2-0.1,2.5-0.4,2.5-0.4s1.9,0.4,3.4,0.6L44.8,55.6z"></path><path d="M45,25.9c1.2-0.1,10.5-3.4,11.7-3.2s3.5,0.4,5.8,3.8c0,0-1-3.7-5.8-5.2c-0.5-0.2-1.1-0.2-1.6-0.1   c-1.7,0.3-7.2,1.2-10.8,2.8c-0.5,0.2-0.7,0.9-0.4,1.4C44.2,25.7,44.5,25.9,45,25.9z"></path><path d="M59.4,30.3c-0.1,0-0.1-0.1-0.2-0.1c1.5-0.7,1.7-1.6,1.7-1.6c-0.4,0.8-1.6,1.1-2.3,1.3c-0.1-0.1-0.3-0.2-0.4-0.2   c0.4-0.3,0.7-0.6,0.9-0.9c0.6,0.3,0.9,0.6,0.9,0.6c-0.3-0.3-0.5-0.5-0.8-0.7c0.4-0.7,0.4-1.2,0.4-1.2c-0.1,0.4-0.3,0.7-0.6,1   c-0.4-0.3-0.7-0.5-1.1-0.8c0.3-0.7,0.2-1.2,0.2-1.2c-0.1,0.4-0.3,0.7-0.6,1c-0.6-0.3-1.1-0.5-1.7-0.6c0-0.4-0.1-0.7-0.1-0.7   c0,0.3-0.1,0.5-0.2,0.7c-0.7-0.2-1.5-0.3-2.2-0.3c0-0.2,0-0.3,0-0.5c0,0-0.1,0.2-0.2,0.5c-0.8,0-1.6,0-2.2,0.1   c-2,0.3-5.2,1.9-5.2,1.9c3.9-1.3,5-1.4,5-1.4c0.8-0.1,1.5-0.1,2.2-0.1C52.7,27.4,52.4,28,52,28c-1.7,0.1-2.7,0.6-3.7,1.1   c-0.5,0.3-1.6,0.8-2,1c-0.1,0-0.1,0-0.2,0.1l0,0c-0.2,0.1-0.4,0.2-0.5,0.4c-0.3,0.2-0.4,0.5-0.3,0.8c0.2,0.6,0.9,0.7,1.6,0.9   c0.3,0.1,0.9,0.2,1.1,0.5c1.6,1.5,3.5,1.9,4.5,1.9c0.1,0.2,0.4,0.7,0.4,1.3c0,0,0.1-0.8,0-1.3c0.1,0,0.2,0,0.2,0   c0.4,0,0.8,0,1.2-0.1c0.1,0.2,0.3,0.6,0.4,1.2c0,0,0.1-0.8,0-1.2c0.4-0.1,0.9-0.2,1.2-0.3c0.2,0.2,0.5,0.5,0.6,1   c0,0-0.1-0.7-0.3-1.1c0.4-0.2,0.7-0.4,1.1-0.6c0.3,0.1,0.6,0.4,1,0.8c0,0-0.3-0.7-0.7-1c0.4-0.3,0.7-0.7,0.9-1   c0.3,0.1,0.7,0.2,1.2,0.6c0,0-0.6-0.8-0.9-1c0.2-0.3,0.3-0.5,0.4-0.7c0,0,0,0,0,0c0-0.1,0.1-0.1,0.1-0.2c2-0.2,2.5-1.2,2.5-1.2   C61.3,30.2,60.1,30.3,59.4,30.3z M58.8,28.5c-0.4,0.3-0.9,0.6-1.2,0.7c-0.3-0.1-0.5-0.2-0.8-0.3c0.4-0.3,0.7-0.6,0.9-0.9   C58.1,28.1,58.5,28.3,58.8,28.5z M57.1,27.7c-0.5,0.5-1.1,0.8-1.3,0.8c-0.3-0.1-0.6-0.2-0.9-0.2c0.4-0.3,0.6-0.7,0.7-1.1   C56.2,27.4,56.7,27.5,57.1,27.7z M52.1,30.2c0,0.4-0.3,0.7-0.7,0.7s-0.7-0.3-0.7-0.7c0-0.4,0.3-0.7,0.7-0.7S52.1,29.8,52.1,30.2z    M55.3,27.1c-0.6,0.9-1.5,0.9-1.5,0.9l0,0c-0.1,0-0.2,0-0.3,0c0,0-0.1,0-0.1,0c-0.1,0-0.2,0-0.2,0c0.1-0.2,0.2-0.6,0.2-1.2   C54,26.9,54.7,27,55.3,27.1z M53.2,34c-2.6-0.1-3.8-0.9-4.7-1.6c-0.1-0.1-0.3-0.2-0.4-0.4c-0.2-0.2-0.8-0.4-1.2-0.5   c0,0-0.5-0.3-0.2-0.7l1.9-0.9l0,0c0.3-0.1,0.5-0.2,0.8-0.3c-0.1,0.3-0.2,0.6-0.2,1c0,1.6,1.3,2.8,2.9,2.8s2.9-1.3,2.9-2.8   c0-0.5-0.2-1-0.4-1.5c1.8,0.4,3.3,1.3,4,1.5C58.6,30.7,57.3,34.1,53.2,34z"></path><path d="M95,73.8c-0.1-0.3-0.3-0.6-0.6-0.8l-0.2-0.1c-0.3-0.2-0.6-0.2-1-0.2c-0.3,0.1-0.5,0.2-0.7,0.4L84.5,68l0.7-1.2   c0.3-0.5,0.2-1.2-0.3-1.5l-0.5-0.3c-0.5-0.3-1.1-0.2-1.4,0.2L64.4,53.7c-0.5-0.3-1.1-0.3-1.6-0.1l-1.2,0.5l-0.7-0.2l0,0l-0.6-0.4   l-0.1,0.2l-0.1,0c1.3-2.3,2.6-4.8,3.6-7.7c0.1,0,0.1,0,0.2,0c0.1,0,0.2,0,0.2,0c4.8-1.6,7.9-6.4,9.1-10.1c1-3.1,0.9-5.8-0.3-7.4   c-1.1-1.4-2.2-2.1-3.3-2c-0.6,0-1.1,0.3-1.5,0.5c0.6-4.6,0.8-7.6,0.8-7.7c0-0.4-0.3-0.8-0.7-0.8c-0.4,0-0.8,0.3-0.8,0.7   c0,0-0.1,0.8-0.2,2.1c-3.5-2.2-13.6-7.3-29.6-7.3c-15.7,0-23.5,5-26.2,7.3c-0.1-1-0.2-1.6-0.2-1.6c0-0.4-0.4-0.7-0.8-0.7   c-0.4,0-0.7,0.4-0.7,0.8c0,0.1,0.2,2.8,0.8,7c-0.3-0.2-0.7-0.3-1.1-0.3c-1.2,0-2.3,0.6-3.3,2c-1.3,1.7-1.4,4.6-0.4,7.9   c1.2,3.7,4,8.1,8.5,9.6c1.1,4,3.6,10.4,9.5,16.3c0,0,0,0.1,0,0.1c0,0.1,1.9,8.8-2.4,15.4c-2.4,3.6-6.2,6-11.4,6.9   c-0.4,0.1-0.7,0.5-0.6,0.9c0.1,0.4,0.4,0.6,0.7,0.6c0,0,0.1,0,0.1,0c5.6-1.1,9.8-3.6,12.4-7.6c3.4-5.2,3.3-11.5,2.9-14.6   c0.3,0.3,0.7,0.6,1.1,0.9c0.1,0.2,0.3,0.3,0.4,0.5l0.1-0.1c1.7,1.4,3.7,2.7,5.9,3.9c1.9,1,3.9,1.6,6,1.6c2.2,0,4.5-0.6,6.5-1.8   c0.7-0.4,1.7-1,2.9-1.9l0,0c0,0,0.1-0.1,0.1-0.1c1.4-1,3-2.4,4.7-4.1c-0.4,3.2-0.7,10.1,3.1,15.8c2.6,4,6.7,6.5,12.2,7.5   c0,0,0.1,0,0.1,0c0.4,0,0.7-0.3,0.7-0.6c0.1-0.4-0.2-0.8-0.6-0.9c-5.1-1-8.8-3.3-11.2-6.9c-4.6-6.9-2.6-16.3-2.6-16.3   c0-0.2,0-0.3,0-0.4c1.3-1.4,2.6-3.1,3.8-4.9l0.1,0.1l-0.1,0.2l0.6,0.4l0,0l0.5,0.5l0.1,1.3c0,0.5,0.3,1.1,0.8,1.3L79,71.5   c-0.2,0.5-0.1,1.1,0.4,1.4l0.5,0.3c0.2,0.1,0.4,0.2,0.6,0.2c0.4,0,0.7-0.2,0.9-0.5l0.7-1.1l8.1,5.1c-0.2,0.6,0,1.2,0.5,1.6l0.2,0.1   c0.2,0.1,0.4,0.2,0.7,0.2c0.1,0,0.2,0,0.3,0c0.3-0.1,0.6-0.3,0.8-0.6l2.1-3.4C95,74.5,95,74.1,95,73.8z M68.3,28.8   c0,0,0.6-0.9,1.4-0.9c0.8,0,1.6,0.8,2.1,1.4c0.9,1.2,0.9,3.5,0.1,6c-1.1,3.4-3.8,7.4-7.5,8.9c0.3-0.8,0.5-1.7,0.8-2.5   c1.2-4.5,2-8.9,2.6-12.6C67.9,29.1,68.1,29,68.3,28.8z M63.6,41.3c-1.2,4.6-3,8.5-5,11.8c-0.1-0.1-0.2-0.1-0.4-0.2   c5.8-12.8,6.4-27,6.4-31.4c1,0.6,1.8,1,2.3,1.3C66.6,27.1,65.6,34.1,63.6,41.3z M57.5,54.9c-0.2,0.4-0.5,0.7-0.7,1.1   c0.2-0.4,0.4-0.8,0.6-1.2C57.4,54.9,57.5,54.9,57.5,54.9z M13.4,21.6c0.2,5.3,1.6,23.2,8.8,36.6C15.7,50.1,15,42,14.9,41.9   c0,0,0-0.1,0-0.1c-1.8-7.5-2.9-14.7-3.4-18.8C11.9,22.8,12.5,22.2,13.4,21.6z M7.1,35.8c-0.9-2.7-0.8-5.2,0.1-6.5   c0.5-0.7,1.3-1.5,2.1-1.4c0.8,0,1.4,0.9,1.4,0.9c0,0.1,0.1,0.1,0.1,0.1c0.6,3.8,1.4,8.4,2.6,13.1c0,0.2,0.1,0.9,0.3,1.9   C10.3,42.4,8.1,38.7,7.1,35.8z M44.6,67.6c-3.4,2-7.6,2.1-11,0.2c-2.3-1.3-4.3-2.6-6-4.1C20,54.5,16.9,39.9,15.7,30.1   c0.4,0.3,1,0.7,2.1,0.7c0,0.1,0.1,0.1,0.1,0.2c0,0,0,0,0,0c0.1,0.2,0.2,0.5,0.4,0.7c-0.4,0.2-0.9,1-0.9,1c0.4-0.4,0.9-0.6,1.2-0.6   c0.2,0.3,0.6,0.7,0.9,1c-0.3,0.3-0.7,1-0.7,1c0.3-0.4,0.7-0.7,1-0.8c0.3,0.2,0.7,0.4,1.1,0.6c-0.2,0.4-0.3,1.1-0.3,1.1   c0.2-0.5,0.4-0.8,0.6-1c0.4,0.1,0.8,0.3,1.2,0.3c-0.1,0.4,0,1.2,0,1.2c0-0.5,0.2-0.9,0.4-1.2c0.4,0,0.8,0.1,1.2,0.1   c0,0,0.1,0,0.2,0c-0.1,0.4,0,1.3,0,1.3c0-0.6,0.3-1.1,0.4-1.3c1-0.1,2.9-0.4,4.5-1.9c0.2-0.2,0.8-0.4,1.1-0.5   c0.7-0.2,1.4-0.3,1.6-0.9c0.1-0.3-0.1-0.5-0.3-0.8c-0.2-0.1-0.3-0.3-0.5-0.4h0l0,0c-0.1,0-0.1-0.1-0.2-0.1c-0.4-0.2-1.5-0.8-2-1h0   c-0.9-0.5-2-1-3.7-1.1c-0.3-0.1-0.7-0.7-0.9-1.2c0.7,0,1.4,0,2.2,0.1c0,0,1.1,0.1,5,1.4c0,0-3.1-1.6-5.2-1.9   c-0.6-0.1-1.4-0.2-2.2-0.1c-0.1-0.3-0.2-0.5-0.2-0.5c0,0.2,0,0.3,0,0.5c-0.7,0-1.4,0.1-2.2,0.3c-0.1-0.2-0.2-0.4-0.2-0.7   c0,0-0.1,0.3-0.1,0.7c-0.6,0.2-1.1,0.4-1.7,0.6c-0.2-0.3-0.4-0.6-0.6-1c0,0-0.1,0.6,0.2,1.2c-0.4,0.2-0.8,0.5-1.1,0.8   c-0.3-0.3-0.5-0.6-0.6-1c0,0,0,0.5,0.4,1.2c-0.3,0.2-0.5,0.5-0.8,0.7c0,0,0.3-0.2,0.9-0.6c0.2,0.3,0.5,0.6,0.9,0.9   c-0.1,0.1-0.3,0.2-0.4,0.2c-0.7-0.1-1.9-0.5-2.3-1.3c0,0,0.2,1,1.7,1.6c-0.1,0-0.1,0.1-0.2,0.1c-0.6,0-1.4,0-2-0.3   c-0.2-1.6-0.4-3-0.5-4.3c2-2.7,4.1-2.8,5.2-3c1.2-0.2,10.5,3.1,11.7,3.2c0.5,0.1,0.9-0.2,1.1-0.5c0.4-0.5,0.2-1.1-0.4-1.4   c-3.6-1.6-9.2-2.6-10.8-2.8c-0.5-0.1-1.1-0.1-1.6,0.1c-3,1-4.6,2.8-5.3,4c-0.2-2.2-0.3-3.9-0.3-4.7c3.8-2.3,11-5.2,22.8-5.2   c12,0,20.7,3.1,25.6,5.4c0,2.8-0.2,18.1-6.3,31.5c-0.1,0-0.1-0.1-0.2-0.1c-0.2-0.1-0.4-0.1-0.6,0L51,49c-0.2-0.1-0.6-0.1-0.7,0.2   c-0.1,0.2-0.1,0.6,0.2,0.7l5.1,3.2c0,0.2,0.1,0.4,0.3,0.6c0.1,0.1,0.2,0.2,0.3,0.2c-2.2,4.4-5,8.5-8.7,11.8   C46.2,66.6,45.3,67.2,44.6,67.6z M23.8,26.9c0,0.5,0.1,0.9,0.2,1.2c0,0-0.1,0-0.2,0c0,0-0.1,0-0.1,0c-0.1,0-0.2,0-0.3,0l0,0   c0,0-0.9-0.1-1.5-0.9C22.4,27,23.1,26.9,23.8,26.9z M23.9,34c-4,0.1-5.4-3.3-5.4-3.3c0.6-0.2,2.1-1.2,4-1.5   c-0.3,0.4-0.4,0.9-0.4,1.5c0,1.6,1.3,2.8,2.9,2.8c1.6,0,2.9-1.3,2.9-2.8c0-0.3-0.1-0.7-0.2-1c0.3,0.1,0.6,0.2,0.8,0.3l0,0l1.9,0.9   c0.3,0.5-0.2,0.7-0.2,0.7c-0.4,0.2-1,0.4-1.2,0.5c-0.1,0.1-0.2,0.3-0.4,0.4C27.7,33.1,26.5,33.9,23.9,34z M26.4,30.2   c0,0.4-0.3,0.7-0.7,0.7c-0.4,0-0.7-0.3-0.7-0.7s0.3-0.7,0.7-0.7C26.1,29.5,26.4,29.8,26.4,30.2z M22.1,28.3   c-0.3,0.1-0.6,0.1-0.9,0.2c-0.1-0.1-0.7-0.3-1.3-0.8c0.4-0.2,0.9-0.3,1.4-0.5C21.5,27.7,21.7,28,22.1,28.3z M20.3,28.9   c-0.3,0.1-0.5,0.2-0.8,0.3c-0.3-0.1-0.8-0.4-1.2-0.7c0.3-0.2,0.7-0.4,1.1-0.5C19.6,28.3,19.9,28.6,20.3,28.9z M80.9,70.9L61.3,58.6   c0,0-0.1-0.1-0.1-0.1l-0.1-1.9l-0.9-1l0.2-0.3l1.3,0.4l1.7-0.7c0,0,0.1,0,0.1,0l19.6,12.3L80.9,70.9z M91.8,76.7c0-0.1,0-0.2,0-0.3   c-0.1-0.3-0.3-0.6-0.6-0.8l-8.3-5.2l0.7-1.2l8.3,5.2c0.4,0.2,0.8,0.3,1.2,0.1L91.8,76.7z"></path><path d="M62.8,56.2l-0.7,1.2c-0.3,0.5-0.2,1.1,0.3,1.4l13.1,8.1l1.7-2.7l-13-8.2C63.7,55.6,63.1,55.7,62.8,56.2z"></path></g></g><g id="SvgjsG1331" featureKey="nameFeature-0" transform="matrix(0.8336961296532399,0,0,0.8336961296532399,-0.30013002229534524,135.59677906834486)" fill="url(#SvgjsLinearGradient1338)"><path d="M7.52 40.2 c0 -0.08 0 -0.16 0.04 -0.24 c0 -0.08 -0.04 -0.16 -0.08 -0.16 c0 0.16 -0.2 0.32 -0.24 0.32 c-0.16 -0.16 -0.36 -0.32 -0.44 -0.52 c0 -1.32 3.64 -0.36 4.28 -1.04 l-0.08 -3.76 l0 -9.56 l0.08 -0.08 c0 -1.48 -0.16 -2.68 -0.16 -4 c0 -2.04 0.16 -5.4 0.16 -6.68 c0 -1.84 -0.04 -2.6 -0.52 -3.28 l-0.48 0 l0 0.16 c-2.32 0 -1.84 0.36 -2.76 0.76 c0.08 0 -1 0.12 -1 0.64 l0.04 0.04 c0 0.08 -0.92 0.08 -0.92 0.68 c-0.92 0 -1.92 2.52 -2.36 2.96 c0 0.36 -0.84 1.24 -0.84 2.04 l0 -0.04 s-0.04 1.52 -0.84 1.52 c-0.64 0 -0.88 0.04 -1.04 -0.44 c0 -3.16 0.48 -1.88 0.48 -9.12 c9.64 -0.48 19 -0.52 23.68 -0.52 c0.68 0 1.28 0.04 1.76 0.04 c0.2 0 0.76 -0.2 0.76 1.2 c0 0.32 0 0.24 -0.08 0.36 c0.16 0.76 -0.04 2.04 0.28 2.84 c-0.04 0.04 -0.12 0.4 -0.12 0.6 c0 0.64 0.36 2.4 0.36 3.88 c0 1 -0.32 1.04 -0.96 1.04 c-0.44 0 -1.28 -2.2 -1.48 -2.84 c0.36 0.04 -0.44 -0.04 -0.44 -0.8 c-0.92 -1.24 -0.6 -1.2 -1.36 -1.96 c-0.64 -1.28 -0.92 -0.8 -1.48 -1.4 l0 0.04 c0.04 0 -0.32 -0.76 -1.08 -0.76 c-0.04 -0.36 -0.48 -0.16 -0.64 -0.52 c-1.44 -0.08 -1.32 -0.48 -1.76 -0.48 l-0.12 0.04 c-0.84 0 -0.56 0 -0.8 -0.04 c-0.08 0 -0.16 0.04 -0.16 0.04 c0 0.04 0.04 0.08 0.04 0.08 c0 0.2 -0.44 0.08 -0.44 1 c0 1.48 0.12 5.16 0.12 9.24 l0 7.6 c0 0.08 -0.08 0.44 -0.08 0.48 c0 -0.04 0 0.2 0.08 0.32 c0 0.2 0.08 3.44 0.08 3.96 c0 1.04 -0.08 2.24 -0.08 3.04 c0 0.88 0.04 1.8 0.32 1.92 c1.96 0 2 -0.08 2.92 -0.08 c0.24 0 0.76 0.08 0.76 0.8 c0 0.28 -0.32 0.52 -0.56 0.68 c-0.36 0 -1.2 -0.32 -1.72 -0.32 c-0.24 0 -0.4 0.12 -0.56 0.12 c-0.32 -0.04 -0.64 -0.12 -0.88 -0.12 l-0.08 0.08 c-0.36 0 -0.8 0.12 -1 0.12 c-0.08 0 -0.2 -0.08 -0.32 -0.08 c-0.04 0 -0.16 0.04 -0.32 0.12 c-0.4 0 -0.84 0 -0.88 -0.12 l-2.08 0 s-0.08 0.12 -0.16 0.12 c0.16 -0.04 -0.24 0.12 -0.24 -0.12 c-0.32 0 -0.56 0.16 -0.96 0.16 c-0.28 0 -0.48 -0.04 -0.6 -0.2 l0.12 -0.08 l-0.68 0 c0 0.16 0 0.32 -0.08 0.4 l-0.08 -0.16 c-0.16 0 -0.16 0.2 -0.28 0.2 c-0.16 0 -0.4 -0.24 -0.44 -0.24 l0.16 -0.12 c0 -0.12 0 -0.16 -0.08 -0.2 l0 0.04 c-0.04 0 -0.08 -0.04 -0.16 -0.04 s-0.2 0.04 -0.24 0.2 l0.08 0.24 l-0.08 0.08 l-1.24 0 z M7.32 39.88 c-0.04 0 -0.08 0.04 -0.08 0.04 c0 0.04 0.04 0.04 0.08 0.04 s0.04 0 0.04 -0.04 c0 0 0 -0.04 -0.04 -0.04 z M10.88 39.8 c-0.04 0 -0.08 0.04 -0.08 0.08 s0.04 0.08 0.08 0.08 c0 0 0.04 -0.04 0.04 -0.08 s-0.04 -0.08 -0.04 -0.08 z M7.2 39.76 l0 0.04 l0.04 0 z M12.04 39.76 l-0.08 0.04 l0.16 0 z M11.64 39.76 c0 -0.04 -0.04 -0.04 -0.08 -0.04 s-0.08 0 -0.08 0.04 s0.04 0.04 0.08 0.04 s0.08 0 0.08 -0.04 z M12.52 39.76 l0 -0.04 c-0.04 0 -0.04 0 -0.04 0.04 s0 0.04 0.04 0.04 l0 -0.04 z M12.8 39.6 c-0.04 0 -0.08 0.04 -0.08 0.08 s0.04 0.08 0.08 0.08 s0.04 -0.04 0.04 -0.08 s0 -0.08 -0.04 -0.08 z M17.24 39.6 l0 0.08 l0.2 0 c-0.04 -0.08 -0.12 -0.08 -0.2 -0.08 z M19.32 39.6 l-0.08 0.08 l0.08 0 l0 -0.08 z M19.72 39.56 c-0.08 0 -0.08 0.08 -0.08 0.12 l0.08 0 l0 -0.12 z M7.12 39.36 c0 0.08 0 0.16 0.12 0.16 s0.24 -0.04 0.24 -0.08 c0 -0.28 -0.04 -0.2 -0.24 -0.32 c-0.12 0.08 -0.12 0.08 -0.12 0.24 z M8.44 39.36 c-0.08 0.04 -0.2 0.08 -0.2 0.12 s0.08 0.04 0.12 0.04 c0.08 0 0.12 0 0.12 -0.08 z M9.2 39.28 c-0.12 0.08 -0.08 0.16 -0.08 0.24 l0.4 0 c-0.08 -0.12 -0.28 -0.12 -0.32 -0.24 z M10.56 39.52 c0 -0.04 -0.04 -0.04 -0.08 -0.04 s-0.08 0 -0.08 0.04 s0.04 0.04 0.08 0.04 s0.08 0 0.08 -0.04 z M19 39.52 l0.04 -0.08 z M11.44 38 c0 0 -0.04 0.04 -0.04 0.08 s0.04 0.08 0.04 0.08 s0.04 -0.04 0.04 -0.08 s-0.04 -0.08 -0.04 -0.08 z M16.8 31.119999999999997 c-0.04 0 -0.08 0.04 -0.08 0.08 s0.04 0.08 0.08 0.08 s0.04 -0.04 0.04 -0.08 s0 -0.08 -0.04 -0.08 z M11.32 24.28 c-0.04 0 -0.08 0.04 -0.08 0.08 s0.04 0.08 0.08 0.08 s0.04 -0.04 0.04 -0.08 s0 -0.08 -0.04 -0.08 z M1.6 19.6 c-0.04 0 -0.08 0.04 -0.08 0.08 c0 0 0.04 0.04 0.08 0.04 s0.04 -0.04 0.04 -0.04 c0 -0.04 0 -0.08 -0.04 -0.08 z M27.04 19.2 c-0.32 0.04 -0.32 0.4 -0.32 0.48 c0.24 -0.24 0.32 -0.24 0.32 -0.48 z M1.72 19.08 l0 0.28 c0.04 -0.04 0.04 -0.2 0.04 -0.28 l-0.04 0 z M26 19.04 l0 0.04 l0.16 0 z M27.04 18.24 l0 0.08 l0.04 0 z M1 15.68 c0 0 -0.04 0.08 -0.04 0.16 l0.04 0.08 c0.04 0 0.04 -0.08 0.04 -0.12 s0 -0.08 -0.04 -0.12 z M26.56 15.8 l-0.04 0.04 c0 0.04 0.04 0.08 0.04 0.08 c0.04 0 0.04 -0.04 0.04 -0.08 c0 0 0 -0.04 -0.04 -0.04 z M1 15.48 c0 0 -0.04 0 -0.04 0.04 s0.04 0.08 0.04 0.08 c0.04 0 0.04 -0.04 0.04 -0.08 s0 -0.04 -0.04 -0.04 z M1.12 12.2 c-0.08 0.04 -0.12 0.08 -0.16 0.16 c0.16 0 0.16 -0.04 0.16 -0.16 z M5.84 11.879999999999999 c-0.04 0 -0.08 0 -0.08 0.04 s0.04 0.08 0.08 0.08 s0.04 -0.04 0.04 -0.08 s0 -0.04 -0.04 -0.04 z M6 11.48 c0 0 -0.04 0 0.08 0.12 c0.04 -0.04 0.08 -0.08 0.08 -0.12 l-0.16 0 z M7.2 11.280000000000001 c-0.04 0 -0.08 0.04 -0.08 0.08 s0.04 0.08 0.08 0.08 c0 0 0.04 -0.04 0.04 -0.08 s-0.04 -0.08 -0.04 -0.08 z M9.12 10.96 c0 0.04 -0.12 0.2 -0.2 0.24 l0.28 0 c0 -0.08 0.04 -0.16 -0.08 -0.24 z M10.8 10.96 l0 0.08 l0.08 -0.08 l-0.08 0 z M5.84 10.8 c-0.04 0 -0.08 0.04 -0.08 0.08 s0.04 0.08 0.08 0.08 s0.04 -0.04 0.04 -0.08 s0 -0.08 -0.04 -0.08 z M6.04 10.8 c-0.04 0.04 -0.04 0.04 -0.04 0.08 c0 -0.04 0.04 -0.08 0.04 -0.08 z M7.08 10.719999999999999 l0 0.16 l0.04 -0.08 z M8.12 10.8 c-0.04 0 -0.08 0.04 -0.08 0.04 c0 0.04 0.04 0.04 0.08 0.04 c0 0 0.04 0 0.04 -0.04 z M20.8 10.8 l0 0.08 s0.16 0.08 0.16 -0.08 l-0.16 0 z M1 10.8 l0.12 0 l-0.04 0 c0.12 0 0.28 -0.08 0.36 -0.08 c0 0.04 -0.08 -0.28 -0.16 -0.32 c-0.2 0 -0.2 0.28 -0.28 0.4 z M2.48 10.719999999999999 c-0.04 0 -0.04 0.04 -0.04 0.08 l0.08 0 c0 -0.04 0 -0.08 -0.04 -0.08 z M19.8 10.719999999999999 c0.08 0.08 0.16 0.08 0.24 0.08 c-0.04 -0.08 -0.12 -0.08 -0.24 -0.08 z M21.28 10.559999999999999 c-0.04 0 -0.04 0.04 -0.04 0.08 s0 0.08 0.04 0.08 s0.04 -0.04 0.04 -0.08 s0 -0.08 -0.04 -0.08 z M26.4 10.239999999999998 l0.08 0.08 l0 -0.08 l-0.08 0 z M40.884 40.12 l-4.12 -0.12 l-0.08 0.04 l0.16 -0.24 c-0.04 -0.04 -0.08 -0.08 -0.12 -0.08 c-0.08 0 -0.16 0.28 -0.28 0.4 l-2.36 0 c-0.16 -0.28 -0.4 -0.44 -0.4 -0.64 c0 -0.12 0.08 -0.28 0.08 -0.36 c0.16 -0.24 -0.24 -0.48 2.28 -0.48 c0.24 0 0.52 0.08 0.8 0.08 c0.4 0 0.8 -0.16 0.88 -0.84 c0 -1.36 -0.04 -2.56 -0.04 -3.96 c0 -0.72 0.04 -1.68 0.04 -2.48 c0 -1.72 0 -3.32 -0.12 -4.56 c0 -0.84 0.12 -2.96 0.12 -7 c0 -0.16 -0.04 -0.48 -0.04 -0.64 c0 -0.36 0.04 -0.4 0.04 -0.88 c0 -0.36 -0.08 -0.76 -0.08 -1.12 c0 -0.28 0.04 -0.48 0.08 -0.64 c0 -0.04 -0.04 -0.24 -0.04 -0.44 s0 -0.28 0.04 -0.44 l0 -4.44 l-0.24 -0.16 l-2.12 0 c-0.12 0.08 -0.36 0.08 -0.6 0.08 c-0.16 0 -0.44 0.04 -0.44 -0.04 c0 -0.04 -0.64 0.12 -0.64 -0.72 c0.24 -0.64 0.16 -0.56 0.64 -0.8 c4.92 0 4.48 0.08 5.8 0.08 c0.48 0 3.84 -0.08 4.76 -0.08 l0.24 0.08 l2.44 0 c0.36 0.12 0.36 0.36 0.48 0.64 c0 0.36 0.04 0.64 -0.48 0.76 c-0.48 0 -1.48 -0.08 -2.48 -0.08 c-1.56 0 -1.16 0.32 -1.44 0.88 l0 11 c0 0.12 -0.08 0.84 -0.08 0.96 c0 0.08 0.08 0.2 0.08 0.28 l0 2.32 c0 0.04 0.08 0.32 0.08 0.4 l-0.08 0.16 l0 6.76 c0 0.12 0.08 0.28 0.08 0.32 s-0.04 0.12 -0.08 0.28 l0 2.68 l-0.08 0.2 c0 1.12 0.12 1.24 0.64 1.44 c0.64 0 1.84 0.08 3 0.08 c1.48 0 2.88 -0.12 3.2 -0.56 c-0.08 0 0.88 -0.04 1.16 -0.44 c0.16 0.04 0.52 -0.72 1.12 -0.72 c1.04 -1.24 -0.2 0.2 1.56 -1.56 c-0.04 0 -0.08 0 -0.08 -0.04 c0 -0.12 0.84 -0.6 0.84 -1.04 c-0.08 0 1.12 -2 1.12 -2.36 c0 -1.24 0.72 -1.92 1.04 -2.08 c0.72 0.04 1.16 -0.56 1.16 1.56 c0 1.52 -0.2 3.52 -0.36 3.48 c0 0.08 0.04 0.2 0.12 0.32 c0 0.04 -0.16 1.08 -0.16 3.52 c0 0.96 -0.32 0.64 -0.6 1.24 c-2.24 0 -2.24 -0.12 -3.24 -0.12 c-0.48 0 -1.2 0.12 -1.4 0.12 l-2.68 -0.08 c-0.56 0 -1.24 -0.04 -1.56 -0.04 c0.04 0 -0.72 0.08 -1.16 0.08 c-0.2 0 -0.32 -0.04 -0.4 -0.16 c-0.04 0 -0.76 0.16 -0.84 0.2 c0 0 -0.04 -0.08 -0.4 -0.08 c-0.2 0 -0.76 0.08 -1.28 0.08 c-0.28 0 -0.32 -0.08 -0.56 -0.08 c-0.08 0 -1.56 0.16 -2.08 0.16 c-0.12 0 -0.72 -0.08 -0.84 -0.08 z M34.483999999999995 39.44 c-0.08 0 -0.08 0.48 -0.08 0.56 l0.08 0 l0 -0.56 z M35.803999999999995 39.44 c0 0.08 0.16 0.4 0.32 0.56 c0.08 -0.08 0.16 -0.44 0.2 -0.4 c0 -0.04 -0.24 -0.16 -0.44 -0.16 l-0.08 0 z M35.644 39.84 c-0.04 0 -0.04 0.04 -0.04 0.08 s0 0.08 0.04 0.08 s0.04 -0.04 0.04 -0.08 s0 -0.08 -0.04 -0.08 z M46.884 39.72 l0 0.08 l0.08 -0.08 l-0.08 0 z M47.724 39.6 c0 0.12 0.04 0.12 0.08 0.2 c0.2 0 0.16 -0.12 0.24 -0.28 c-0.12 0 -0.24 0 -0.32 0.08 z M48.20399999999999 39.6 l0 0.2 c0.16 0 0.16 -0.08 0.16 -0.2 l-0.16 0 z M48.803999999999995 39.6 l0 0.12 l0.08 0 l0 -0.12 l-0.08 0 z M45.843999999999994 39.6 l0 0.08 l0.08 0.04 z M34.083999999999996 39.44 c-0.08 0.04 -0.12 0.04 -0.12 0.04 c0 0.08 0.16 0 0.16 0.2 z M37.763999999999996 39.44 c-0.08 0.04 -0.2 0.04 -0.24 0.08 c0.16 0 0.24 -0.04 0.24 -0.08 z M51.56399999999999 39.36 c0 -0.04 0 -0.04 -0.04 -0.04 l0 0.12 c0.04 0 0.04 -0.04 0.04 -0.08 z M50.483999999999995 39.12 c-0.12 0 -0.08 0.08 -0.16 0.16 c0.16 0 0.16 -0.12 0.16 -0.16 z M52.20399999999999 39.04 c0.04 0.04 0.04 0.2 0.16 0.24 c0 -0.2 0 -0.24 -0.08 -0.32 z M34.123999999999995 39.04 l0.2 0.08 l0.08 -0.08 l-0.08 -0.08 c-0.16 0 -0.16 0 -0.2 0.08 z M57.763999999999996 34.72 c-0.04 0 -0.08 0.04 -0.08 0.04 c0 0.04 0.04 0.04 0.08 0.04 s0.04 0 0.04 -0.04 c0 0 0 -0.04 -0.04 -0.04 z M42.483999999999995 32.64 l0 0.2 l0.28 0 c0 -0.08 -0.12 -0.2 -0.2 -0.2 l-0.08 0 z M57.763999999999996 32.68 c-0.04 0 -0.08 0.04 -0.08 0.08 s0.04 0.08 0.08 0.08 s0.04 -0.04 0.04 -0.08 s0 -0.08 -0.04 -0.08 z M57.884 30.64 c0 0.2 0 0.4 0.04 0.56 l0.16 0 l0 -0.56 l-0.2 0 z M57.244 30.52 c0 0.04 0.04 0.16 0.08 0.2 c0.08 0 0.2 -0.04 0.2 -0.08 c0 -0.12 -0.04 -0.16 -0.16 -0.16 c-0.04 0 -0.08 0 -0.12 0.04 z M38.004 18.28 l0 0.08 l0.08 0 l0 -0.08 l-0.08 0 z M38.004 14.239999999999998 c0 -0.04 -0.04 -0.04 -0.04 -0.04 c-0.04 0 -0.04 0 -0.04 0.04 s0 0.04 0.04 0.04 c0 0 0.04 0 0.04 -0.04 z M35.20399999999999 10.8 l0 0.08 l0.16 0 c-0.12 -0.08 -0.16 -0.04 -0.16 -0.08 z M34.163999999999994 10.32 c-0.04 0 -0.04 0.32 -0.04 0.4 l0.04 -0.16 l0.28 0 c0 -0.16 -0.16 -0.24 -0.28 -0.24 z M34.964 10.36 c0.08 0.16 0.08 0.2 0.2 0.2 c0 -0.2 -0.12 -0.2 -0.2 -0.2 z M41.004 10.36 l0 0.08 l0.28 0 l0 -0.08 l-0.28 0 z M45.004 10.36 c0.04 0.08 0.12 0.12 0.16 0.12 s0.08 -0.04 0.12 -0.04 z M46.884 10.239999999999998 c0 0.16 0.8 0.2 0.84 0.2 c-0.12 -0.28 -0.32 -0.16 -0.52 -0.28 c-0.08 0 -0.24 0.08 -0.32 0.08 z M36.644 10.32 c0 0.08 0.04 0.04 0.24 0.04 l0 -0.12 s-0.16 0.04 -0.24 0.08 z M40.044 10.32 c-0.04 0 -0.08 0 -0.08 0.04 s0.04 0.08 0.08 0.08 s0.04 -0.04 0.04 -0.08 s0 -0.04 -0.04 -0.04 z M42.044 10.32 c0 0 -0.04 0 -0.04 0.04 s0.04 0.08 0.04 0.08 s0.04 -0.04 0.04 -0.08 s-0.04 -0.04 -0.04 -0.04 z M45.604 10.36 c0 -0.04 -0.04 -0.04 -0.08 -0.04 s-0.08 0 -0.08 0.04 s0.04 0.08 0.08 0.08 s0.08 -0.04 0.08 -0.08 z M74.12799999999999 39.52 c-0.04 0 -0.32 -0.04 -0.36 -0.04 c-1.8 -1.12 -2.16 -1.16 -2.92 -1.48 c0 -0.72 -0.8 -0.48 -1.08 -0.92 c0 -0.28 -1.32 -0.72 -1.32 -1.36 c-0.68 -0.08 -0.36 -0.88 -0.88 -1.08 c0.08 -0.12 -0.84 -0.6 -0.84 -1.12 c0 -0.48 -1.04 -1.6 -1.04 -2.04 c0 -0.56 -0.92 -2.08 -0.92 -3.04 c-0.04 0 -0.48 -2.12 -0.48 -2.84 c0 -0.96 0.12 -1.8 0.12 -2.48 c0 0 0.72 -2.56 0.72 -2.92 c-0.04 0 -0.08 -0.04 -0.08 -0.08 c0 -0.2 0.6 -0.56 0.6 -1.24 c0.44 -1.32 -0.2 0.12 0.76 -1.84 c0.52 0 -0.04 -0.28 0.84 -1.16 l0 0.08 c0.04 0 0.04 -0.96 0.64 -0.96 c0 -0.04 0.4 -1.08 1.36 -1.68 c0.08 0 0.2 -0.52 0.36 -0.52 c2.4 -2 1.92 -1.32 2.84 -2.24 l0 0.08 c0.16 0 1.04 -0.64 1.24 -0.64 c0 0 0.8 -0.68 2.04 -0.68 c0.08 0 0.12 0.04 0.12 0.04 c0.2 0 -0.44 -0.48 3.24 -0.48 c1.52 0 1.4 0.32 2.6 0.32 c-0.04 0 -0.04 -0.04 -0.04 -0.04 c0.04 0 0.52 0.44 0.76 0.44 l1.24 0.16 l0.4 0.32 l0 0.08 c0.16 0 1.2 0.48 1.28 0.48 c0.04 0.04 0.04 0.08 0.08 0.08 c0.12 0 0.24 -0.28 0.6 -0.4 c1 -0.12 0 -0.64 1.92 -0.64 c-0.4 0.2 0.52 -0.32 0.52 0.64 c0 1.84 0.16 3.04 0.16 5.04 c0 0.32 -0.08 0.48 -0.08 0.68 c0 0.16 0.24 0.76 0.24 2.2 c0 0.64 -0.2 0.36 -0.4 0.56 l-1.04 0 c-0.12 0 -0.72 -0.96 -0.76 -1.2 l0 -0.04 c-0.08 0 -0.2 -0.76 -0.52 -1.12 c-0.04 0 -0.28 -1.28 -0.88 -2.12 c0 -0.08 -0.88 -0.88 -0.88 -1.08 c0.04 0 0.04 0 0.04 -0.04 c0 -0.12 -0.76 -0.56 -0.8 -0.68 c0.04 -0.52 -1.12 -0.72 -1.12 -1.2 c-0.4 0 -1 -1.08 -3.12 -1.08 c-2.6 0 -3.28 0.12 -4.16 0.64 c0 0.28 -1.2 0.16 -1.2 0.88 c-0.04 0 -0.44 0.28 -0.52 0.28 c-0.12 0.12 -0.16 0.12 -0.16 0.16 s0.04 0.04 0.04 0.12 l0 0 c-0.08 0 -1.48 2.44 -1.48 3.56 c0 0.16 -0.2 1.08 -0.24 1.12 l-0.12 1.64 l-0.08 0.08 l0 0.84 c-0.12 0 -0.24 1.52 -0.24 1.88 c0 0 0 0.2 0.04 0.56 c0 0 -0.04 0.36 -0.04 0.72 c0 0.4 0 0.92 0.04 1.08 c-0.04 0.08 -0.04 0.16 -0.04 0.24 c0 0.2 0.04 0.64 0.04 0.92 c-0.04 0.04 -0.04 0.12 -0.04 0.24 c0 0.28 0.04 0.72 0.04 1 c0 0.52 -0.04 0.52 -0.04 0.8 s0 0.52 0.16 0.8 c0 0.28 0 0.28 -0.04 0.4 l0.04 0.16 c0 0.48 0.04 0.72 -0.04 0.8 c0.12 3.64 0.84 6.28 1.44 6.56 c0 0.28 -0.32 0.2 1.44 1.96 c0 0 0.84 0.96 1.76 0.96 l-0.04 -0.04 c0.04 0 0.48 0.4 1.72 0.4 c3.04 0 3.28 0.08 4.04 -0.68 c0.24 -0.2 1 -0.28 1.12 -0.32 c0.68 -1.08 0.72 -0.48 1.12 -1.12 c-0.08 -0.24 0.92 -0.92 1.44 -1.6 c0 0 0.2 -1.24 0.76 -1.76 l-0.04 0.04 l0 -0.04 c0 -0.12 0.8 -1.6 0.96 -1.72 c0 0.08 0 0.08 0.04 0.08 s0.2 -1.4 0.96 -1.4 c0.04 0.04 0.08 0.04 0.08 0.04 c0.12 0 0.16 -0.08 0.32 -0.08 c0.12 0 0.32 0.08 0.72 0.44 c0 2.44 -0.24 3.48 -0.24 4.88 c0 0.2 0.04 0.36 0.04 0.44 l-0.04 2.76 c-0.08 0.32 -0.08 0.88 -0.68 0.88 c-1.88 0 -0.2 -0.08 -2.52 -1.04 c-0.16 0 -0.72 0.28 -1.04 0.28 c0 -0.04 -0.04 -0.04 -0.08 -0.04 c-0.2 0 -0.72 0.76 -1.12 0.76 c0.08 0 -2.36 0.04 -2.88 0.48 c-0.36 0 -0.68 -0.08 -1.12 -0.08 c0 0.16 -1 0 -0.96 0.16 c-1.72 0 -2.32 -0.48 -3.24 -0.48 c-0.44 0 -1.08 -0.04 -1.08 -0.36 z M79.88799999999999 39.96 c-0.04 0 -0.08 0.04 -0.08 0.08 s0.04 0.08 0.08 0.08 l0 -0.16 z M79.80799999999999 39.88 c-0.04 0 -0.08 0.04 -0.08 0.08 s0.04 0.08 0.08 0.08 s0.04 -0.04 0.04 -0.08 s0 -0.08 -0.04 -0.08 z M76.208 39.84 l0.12 0.04 l0.04 -0.04 l-0.16 0 z M75.40799999999999 39.64 c-0.04 0 -0.04 0.04 -0.04 0.08 s0 0.08 0.04 0.08 s0.04 -0.04 0.04 -0.08 s0 -0.08 -0.04 -0.08 z M74.12799999999999 39.2 l0 0.08 l0.04 0 z M88.208 39.08 c-0.04 0 -0.04 0.04 -0.04 0.04 l0.08 0 c0 0.04 0 -0.04 -0.04 -0.04 z M88.448 34.4 c0 0 0 -0.04 -0.04 -0.04 c0 0 -0.08 0.04 -0.08 0.08 c0.12 0 0.12 0 0.12 -0.04 z M88.52799999999999 34.24 c0 -0.04 -0.04 -0.04 -0.04 -0.04 c-0.04 0 -0.04 0 -0.04 0.04 s0 0.08 0.04 0.08 c0 0 0.04 -0.04 0.04 -0.08 z M66.568 32.44 c-0.04 -0.04 -0.16 0.08 -0.16 0.2 c0.2 0 0.16 -0.04 0.16 -0.2 z M88.60799999999999 31.04 c0 0.04 -0.04 0.08 -0.04 0.16 s0.04 0.16 0.12 0.16 l0.08 -0.08 c0 -0.12 0.04 -0.24 -0.16 -0.24 z M87.648 31.04 c0 0 0.08 0.2 0.16 0.24 c0 -0.12 0 -0.32 0.4 -0.32 c-0.04 -0.04 -0.04 -0.08 -0.12 -0.08 c-0.2 0 -0.28 0.16 -0.44 0.16 z M65.76799999999999 30.119999999999997 l0.08 -0.04 z M65.12799999999999 28.36 c-0.12 0 -0.08 0.32 -0.08 0.4 s0 0.08 0.04 0.08 c0.08 0 0.16 -0.04 0.16 -0.08 l0 -0.32 s-0.08 -0.08 -0.12 -0.08 z M64.928 27.96 c0.08 0 0.04 0.08 0.24 0.08 c0 0 0.04 0 0.16 -0.04 c-0.08 -0.04 -0.32 -0.04 -0.4 -0.04 z M65.04799999999999 24.759999999999998 c0 -0.04 0 -0.04 -0.04 -0.04 l0 0.12 c0.04 0 0.04 -0.04 0.04 -0.08 z M65.008 23.04 l0.04 0.08 c0.08 -0.04 0.12 -0.04 0.12 -0.16 z M65.568 20.52 c-0.2 0 -0.2 0.12 -0.2 0.16 c0.12 -0.04 0.24 -0.08 0.28 -0.16 l-0.08 0 z M65.68799999999999 20.04 c-0.04 0 -0.04 0 -0.04 0.04 c0 0 0 0.04 0.04 0.04 s0.04 -0.04 0.04 -0.04 c0 -0.04 0 -0.04 -0.04 -0.04 z M65.68799999999999 19.56 c-0.04 0 -0.04 0.04 -0.04 0.08 s0 0.04 0.04 0.04 s0.04 0 0.04 -0.04 s0 -0.08 -0.04 -0.08 z M69.448 13.68 c-0.04 0 -0.04 0.04 -0.04 0.04 c0 0.08 0.12 0.24 0.2 0.24 l0 -0.44 c-0.16 0 -0.16 0.04 -0.16 0.16 z M85.768 13.559999999999999 c-0.04 0 -0.04 0.04 -0.04 0.08 c0 0 0 0.04 0.04 0.04 s0.04 -0.04 0.04 -0.04 c0 -0.04 0 -0.08 -0.04 -0.08 z M88.04799999999999 11.239999999999998 l0.08 0.08 l0 -0.08 l-0.08 0 z M74.008 10.32 c-0.16 0.08 -0.12 0.16 -0.12 0.24 c0.16 -0.04 0.12 -0.12 0.12 -0.24 z M74.80799999999999 10.399999999999999 c0 0.08 0 0.12 0.04 0.12 l0.04 -0.04 l0 -0.08 l-0.08 0 z M75.288 10.48 c0 -0.04 -0.04 -0.04 -0.04 -0.04 c-0.04 0 -0.04 0 -0.04 0.04 s0 0.08 0.04 0.08 c0 0 0.04 -0.04 0.04 -0.08 z M74.568 10.16 c-0.04 0 -0.08 0.04 -0.08 0.08 s0.04 0.08 0.08 0.08 s0.04 -0.04 0.04 -0.08 s0 -0.08 -0.04 -0.08 z M80.768 9.68 c0.04 0.12 0.08 0.2 0.2 0.24 c-0.04 0 0 -0.24 -0.04 -0.28 c-0.12 0 -0.12 0.04 -0.16 0.04 z M75.368 9.68 l0 0.08 l0.04 0 z M75.60799999999999 9.64 c-0.04 0 -0.04 0.04 -0.04 0.08 c0 0 0 0.04 0.04 0.04 s0.04 -0.04 0.04 -0.04 c0 -0.04 0 -0.08 -0.04 -0.08 z M76.208 9.64 l0 0.04 l0.24 0 z M119.176 40.16 c-0.44 0 -0.44 0.04 -0.72 0.04 c-0.08 0 -0.44 -0.32 -0.56 -0.44 c0 0 0.08 -0.6 0.08 -0.72 c1.44 -0.12 2.48 -0.16 3.6 -0.28 c0.12 0 0 -0.76 0.44 -0.76 l0 -0.64 c0.04 0.04 0.08 0.04 0.08 0.04 c0.24 0 0.2 -1.12 0.52 -1.2 c0 -0.08 0.16 -1.44 0.56 -1.76 l0.2 -0.76 s1.36 -4.64 1.88 -4.64 c0.04 0 0.12 0.04 0.16 0.04 c0.2 0 0.24 -0.08 0.24 -0.16 c0 -0.36 -0.32 -0.2 -0.32 -0.48 c0 -0.72 0.72 -2.08 0.8 -2.16 c0.04 -1.64 0.64 -1.24 0.64 -2.28 l0 0.04 c0.04 0 0.36 -1 0.52 -1.12 c0 0.08 0.04 0.08 0.04 0.08 s-0.04 0 -0.04 -0.04 c0 -0.24 0.8 -1.88 0.8 -2.32 c0.2 0 0.24 -0.04 0.24 -0.12 s-0.04 -0.16 -0.04 -0.28 c0 -0.24 0.08 -0.48 0.36 -0.8 l0 0.04 c0.08 0 0.04 -0.88 0.36 -0.88 l0.16 -0.76 l0.24 -0.2 l0 -0.64 l0.32 -0.24 l0 -0.68 s0.24 -0.08 0.24 -0.16 c-0.04 0 -0.08 -0.08 -0.08 -0.12 c0 -0.52 1 -2.04 1 -3.08 l0.2 -0.16 l0 -0.64 c0 0.04 0.04 0.04 0.04 0.04 c0.56 0 -0.2 -2.32 1.88 -2.32 c0.16 0 0.88 0.44 0.88 1.04 c0.16 0.16 -0.16 0.56 0.56 1.88 c0.04 0 1 2.6 1 3.28 c0.36 0 0.12 0.8 1.04 2.72 c0.24 1.08 0.68 1.04 0.68 1.52 l0 -0.04 s0.2 1.28 0.36 1.28 l-0.04 0 c0 0.16 0.96 1.2 0.96 2.44 c0.24 1.16 0.64 0.68 0.64 1.68 l-0.04 -0.04 c0 0.08 0.64 0.92 0.64 1.44 c-0.04 0 -0.08 0 -0.08 0.04 c0 0.16 0.44 0.72 0.44 0.92 c0 0.04 -0.04 0.04 -0.04 0.08 c0 0.08 0.4 0.4 0.4 1.12 c0.16 1.4 0.84 1.48 0.84 2.36 c-0.04 0.08 -0.08 0.12 -0.08 0.16 c0 0.2 0.64 0.2 0.64 1.12 c0 2.28 1.56 2.8 1.56 4.4 c0.16 1.28 0.92 1.72 1.04 1.8 l2.6 0 c0.16 0 0.4 0.12 0.52 0.2 l0 0.72 c-0.16 0.08 -0.28 0.24 -0.92 0.24 c-0.08 0 -2 -0.08 -2.8 -0.08 c-0.36 0 -0.68 0.08 -1 0.08 c-0.04 0 -0.68 -0.08 -0.76 -0.08 c-2.16 0 -3.52 0.12 -4.36 0.12 c-0.04 0 -0.04 -0.12 -0.68 -0.12 c-0.32 0 -0.4 0 -0.56 0.08 c-0.2 0 -0.36 -0.08 -0.44 -0.2 c-0.08 0 -0.24 0.04 -0.24 0.04 l0.08 0.08 l-0.08 0.08 c-1.32 0 -1.44 0 -1.72 -0.24 l0.08 -0.68 c0 -0.08 0.28 -0.24 0.44 -0.24 l3 0 c0.04 0.04 0.32 -0.2 0.32 -0.4 c0 -0.08 -0.64 -0.92 -0.64 -1.4 c0.08 -0.04 0.08 -0.04 0.08 -0.12 c0 -0.2 -0.68 -0.72 -0.68 -1.76 c0.04 0 0.04 0 0.04 -0.04 c0 -0.08 -0.44 -0.4 -0.44 -0.72 c0 -1.44 -0.64 -1.44 -0.64 -2.52 l0 0.04 c-0.08 0 -0.44 -1 -0.8 -1 c-2.68 0 -5.52 0.08 -8.76 0.08 c0 0.16 -0.32 0.24 -0.32 0.68 c-0.6 1.32 -0.68 1.12 -0.68 1.76 c-0.48 0.32 0.04 0.56 -0.52 1.24 c-0.32 2.2 -0.76 0.96 -0.76 2.44 l0 -0.04 c-0.08 0 -0.44 1.04 -0.48 1.04 c0 0.64 0.16 0.64 0.4 0.8 l3.2 0 c0.2 0 0.6 0.04 0.6 0.52 s-0.12 0.72 -0.84 0.72 c-0.12 0 -0.28 -0.08 -0.48 -0.08 c-0.44 0 -0.6 0.08 -0.8 0.08 c-0.08 0 -0.28 -0.08 -0.32 -0.08 l-2.84 0 c-0.08 0.08 -0.16 0.08 -0.24 0.08 c-0.12 0 -0.32 -0.04 -0.48 -0.16 c0 0 0.08 -0.08 0.08 -0.16 l-0.12 0 c-0.08 0 -0.12 0 -0.12 0.08 l0.04 0.08 c-0.04 0.16 -0.08 0.16 -0.32 0.16 c0 -0.52 0 -0.4 0.12 -0.56 c-0.04 -0.16 0.04 -0.36 -0.08 -0.44 c0 0.28 -0.12 0.48 -0.36 0.64 c0 0.08 0.12 0.16 0.2 0.2 c-0.16 0 -0.6 0.2 -0.68 0.32 c-0.72 0 -0.64 -0.16 -1.08 -0.16 z M118.856 39.84 l0 0.08 l0.2 0 c-0.12 -0.08 -0.16 -0.08 -0.2 -0.08 z M119.536 39.92 c0 -0.04 -0.04 -0.04 -0.08 -0.04 s-0.08 0 -0.08 0.04 s0.04 0.08 0.08 0.08 s0.08 -0.04 0.08 -0.08 z M119.776 39.84 c-0.04 0 -0.08 0.04 -0.08 0.08 s0.04 0.08 0.08 0.08 s0.04 -0.04 0.04 -0.08 s0 -0.08 -0.04 -0.08 z M120.65599999999999 39.76 c-0.24 0 -0.56 0.08 -0.64 0.16 c0.68 0 0.48 -0.04 0.64 -0.16 z M121.976 39.8 c0 0.04 0.32 0.08 0.36 0.12 l0.08 -0.08 c-0.2 -0.04 -0.4 -0.04 -0.44 -0.04 z M124.93599999999999 39.84 c0.52 0 1.32 0.08 1.52 0.08 c-0.44 0 -0.44 -0.44 -0.48 -0.64 c0.04 0 -0.32 0.08 -0.32 0.32 c-0.08 0 -0.04 -0.24 -0.36 -0.24 c0 0.28 -0.16 0.36 -0.36 0.48 z M126.776 39.84 l0.08 0.08 c0.04 0 0.28 -0.08 0.36 -0.08 l-0.44 0 z M121.256 39.8 c-0.04 0 -0.08 0.04 -0.08 0.08 c0 0 0.04 0.04 0.08 0.04 s0.04 -0.04 0.04 -0.04 c0 -0.04 0 -0.08 -0.04 -0.08 z M124.416 39.84 c0 0 -0.08 -0.04 -0.12 -0.04 c-0.08 0 -0.08 0.04 -0.08 0.04 c0 0.04 0 0.08 0.08 0.08 c0.04 0 0.12 -0.04 0.12 -0.08 z M134.256 39.76 c0.04 0.04 0.16 0.08 0.2 0.08 s0.24 -0.04 0.32 -0.08 l0 -0.48 s-0.08 -0.04 -0.12 -0.04 c-0.36 0 -0.4 0.08 -0.4 0.24 l0 0.28 z M145.096 39.8 c0.12 0 0.16 0.04 0.36 0.04 c0.04 0 0.24 -0.04 0.36 -0.04 l-0.72 0 z M147.016 39.8 l0 0.04 l0.04 -0.04 l-0.04 0 z M135.376 39.76 l-0.08 0.04 l0.12 0.04 z M138.376 39.76 c-0.04 0 -0.08 0.04 -0.08 0.04 s0.04 0.04 0.08 0.04 s0.04 -0.04 0.04 -0.04 s0 -0.04 -0.04 -0.04 z M143.856 39.76 c0.04 0.04 0.08 0.04 0.2 0.04 l0.76 0 c-0.04 -0.04 -0.12 -0.08 -0.2 -0.12 c-0.08 0.08 -0.2 0.08 -0.24 0.08 c-0.36 0 -0.28 -0.28 -0.36 -0.28 z M118.216 39.48 c0 0.24 0 0.2 0.08 0.28 l0.52 0 l0 -0.68 c-0.56 0.28 -0.6 0.16 -0.6 0.4 z M126.656 39.56 l0 0.2 c0.08 0 0.12 -0.08 0.12 -0.08 c-0.04 -0.24 -0.16 -0.24 -0.16 -0.44 c-0.16 0 -0.24 0.08 -0.24 0.12 c0.04 0.08 0.08 0.2 0.28 0.2 z M146.216 39.68 c-0.04 0 -0.04 0.04 -0.04 0.08 s0 0.04 0.04 0.04 s0.04 0 0.04 -0.04 s0 -0.08 -0.04 -0.08 z M119.29599999999999 39.24 c0 0.32 -0.04 0.4 -0.12 0.44 c0.24 0 0.44 0 0.44 -0.24 s-0.04 -0.2 -0.32 -0.2 z M123.536 39.6 l0 0.08 l0.08 0 z M124.256 39.44 l0.08 0.04 l0 -0.12 z M126.856 39.16 c0 0.04 0 0.12 0.04 0.12 c0 0 0.16 0 0.16 -0.12 c0 -0.08 -0.08 -0.08 -0.16 -0.12 c-0.04 0.04 -0.04 0.08 -0.04 0.12 z M145.136 39.24 c0 0.04 0.08 0.04 0.12 0.04 c0 -0.2 0 -0.2 -0.08 -0.24 c0 0 -0.04 0.12 -0.04 0.2 z M146.896 38.96 c-0.2 0.04 -0.16 0.12 -0.16 0.32 l0.32 -0.2 c0 -0.04 -0.12 -0.08 -0.16 -0.12 z M143.856 39.08 c-0.04 0 -0.08 0.04 -0.08 0.04 c0 0.04 0.04 0.04 0.08 0.04 s0.04 0 0.04 -0.04 c0 0 0 -0.04 -0.04 -0.04 z M121.896 38.96 l0 0.12 l0.08 -0.12 l-0.08 0 z M122.01599999999999 38.36 c0 0.04 0.04 0.6 0.4 0.6 c-0.08 -0.04 -0.2 -0.4 -0.2 -0.6 l0.08 -0.24 l-0.08 -0.08 c-0.16 0 -0.2 0.24 -0.2 0.32 z M123.496 36.48 c-0.12 0.08 -0.28 0.32 -0.28 0.64 c0.04 0.04 0.08 0.04 0.08 0.04 c0.16 0 0.2 -0.24 0.24 -0.36 c0 -0.04 -0.04 -0.36 -0.04 -0.32 z M123.29599999999999 35.44 c0 -0.04 -0.04 -0.04 -0.04 -0.04 c-0.04 0 -0.04 0 -0.04 0.04 s0 0.04 0.04 0.04 c0 0 0.04 0 0.04 -0.04 z M124.416 32.56 c-0.04 0 -0.08 0.04 -0.08 0.04 s0.04 0.04 0.08 0.04 l0.04 -0.04 z M135.776 32 c-0.04 0 -0.04 0.04 -0.04 0.08 s0 0.08 0.04 0.08 s0.04 -0.04 0.04 -0.08 s0 -0.08 -0.04 -0.08 z M124.776 31.68 c-0.04 0 -0.04 0.04 -0.04 0.08 s0 0.08 0.04 0.08 s0.04 -0.04 0.04 -0.08 s0 -0.08 -0.04 -0.08 z M124.776 30.84 c-0.04 0 -0.04 0.04 -0.04 0.04 c0 0.04 0 0.04 0.04 0.04 s0.04 0 0.04 -0.04 c0 0 0 -0.04 -0.04 -0.04 z M126.616 29.2 c0.12 0.48 0.16 0.52 0.44 0.68 c0.48 0 1.8 -0.08 5.44 -0.08 c0.32 0 0.48 0.12 1.28 0.12 c0.4 0 0.8 -0.12 0.8 -0.56 c0 -0.2 -0.52 -0.96 -0.52 -1.36 l0.04 0 c0 -0.08 -0.44 -0.44 -0.44 -0.88 c0 -1.48 -0.76 -1.32 -0.76 -2.24 c0.04 0.04 0.04 0.08 0.04 0.08 c-0.04 0 -0.76 -1.32 -0.76 -2.08 c0 -0.52 -0.72 -1.28 -0.72 -2.16 l0.04 0 c0 -0.08 -0.44 -0.48 -0.44 -0.96 c-0.36 -0.84 -0.4 -0.76 -0.72 -0.76 c-1.16 2.76 -1.08 2.8 -1.44 3.48 c0 -0.08 -0.04 1.28 -0.56 1.48 l0 -0.08 c-0.04 0 -0.44 2.28 -0.84 2.64 c0 0.52 -0.88 1.2 -0.88 2.68 z M125.816 28.08 c-0.04 0 -0.08 0.04 -0.08 0.08 s0.04 0.08 0.08 0.08 s0.04 -0.04 0.04 -0.08 s0 -0.08 -0.04 -0.08 z M126.73599999999999 25.439999999999998 c-0.04 0 -0.08 0.04 -0.08 0.08 c0 0 0.04 0.04 0.08 0.04 l0 -0.12 z M128.416 23.08 l0 0.04 l0.04 0 z M128.256 22.44 c-0.04 0 -0.08 0.04 -0.08 0.08 l0.08 0 l0.04 0 c0 -0.04 0 -0.08 -0.04 -0.08 z M128.416 21.4 c-0.04 0 -0.08 0.04 -0.08 0.04 c0 0.04 0.04 0.08 0.08 0.08 c0 0 0.04 -0.04 0.04 -0.08 z M129.496 18.68 c0 -0.04 -0.04 -0.04 -0.04 -0.04 c-0.04 0 -0.04 0 -0.04 0.04 s0 0.08 0.04 0.08 c0 0 0.04 -0.04 0.04 -0.08 z M129.61599999999999 18.56 l-0.04 0 c0 0.04 0.04 0.04 0.04 0.04 s0.04 0 0.04 -0.04 l-0.04 0 z M133.976 15.760000000000002 c-0.04 0 -0.04 0.04 -0.04 0.08 s0 0.08 0.04 0.08 s0.04 -0.04 0.04 -0.08 s0 -0.08 -0.04 -0.08 z M133.216 10.2 c0 0 -0.04 0.04 -0.04 0.08 l0.08 0 c0 -0.04 0 -0.08 -0.04 -0.08 z M132.176 10.120000000000001 c-0.04 0 -0.04 0.04 -0.04 0.08 s0 0.08 0.04 0.08 s0.04 -0.04 0.04 -0.08 s0 -0.08 -0.04 -0.08 z M132.496 10.120000000000001 l0.16 0.08 c0.32 0 0.2 0 0.32 -0.08 l-0.12 -0.16 c-0.16 0 -0.24 0.16 -0.36 0.16 z M153.61999999999998 39.44 l0 -0.2 l0.48 -0.48 l1.96 0 l0.16 0.08 l0.92 0.08 c0.16 0.08 0.36 -0.52 0.48 -0.52 l0 -4.84 c0 -0.04 -0.08 -0.52 -0.08 -0.56 c0 0 0.08 -0.96 0.08 -1.16 c0.08 -0.12 -0.12 0.16 -0.12 -0.64 c0 -0.08 0.12 -0.16 0.12 -0.32 c0 -0.28 -0.08 -0.44 -0.08 -0.64 c0 -0.08 0.08 -0.36 0.08 -0.52 l0 -2.52 c0 -0.36 -0.12 -1 -0.12 -1.48 l0.04 -3.44 c-0.04 -0.16 -0.04 -1.2 -0.04 -1.4 c0 -0.12 0.04 -1.04 0.04 -1.16 c0 -0.04 -0.04 -2.08 -0.04 -2.32 c0 -2.48 0.04 -2.92 0.04 -4 c0 -0.48 0 -1.52 -0.04 -1.84 l-0.24 -0.28 s-0.8 -0.04 -1.12 -0.04 c-0.52 0 -0.92 0.12 -1.4 0.12 c-0.44 -0.08 -0.88 0.24 -1.28 -0.68 c0 -0.36 0.08 -0.8 0.44 -0.88 c8.16 0 9 0.08 12.24 0.08 c7.76 0 7.32 -0.08 10.56 -0.08 c0.4 0 0.84 7.32 0.84 7.68 c0 0.04 0.04 0.04 0.04 0.08 c0 0.48 -0.72 0.84 -0.96 0.84 c-0.52 0 -0.8 -0.56 -0.96 -1.2 c0.16 0 -1.72 -3.08 -1.64 -2.92 c-0.52 -0.52 -0.56 -0.6 -0.88 -1 c0 -0.36 -1.72 -1.16 -1.92 -1.44 c0 0.04 -0.04 0.04 -0.04 0.04 c-0.12 0 -0.24 -0.48 -1.08 -0.48 c-1.12 0 -1.04 -0.16 -2.76 -0.16 l0 -0.08 l-1.24 0 l-0.08 0.08 l-0.52 0 l0.28 -0.08 c-0.92 0 -1.32 -0.12 -1.56 -0.12 c-0.36 0 -0.8 0.2 -0.8 1.36 c0 2.24 0.08 3.44 0.08 4 c0 0.6 -0.08 2.36 -0.08 2.6 c0 0.68 0.16 1.24 0.16 1.72 c-0.08 0 -0.16 0.28 -0.16 0.4 s0.16 0.88 0.16 1.24 c0 0.08 -0.08 0.2 -0.08 0.24 c0 0.12 -0.12 1.64 0.28 1.64 c0.92 0 1.6 -0.24 2.32 -0.24 l0 0.04 c0.12 0 0.48 -0.6 0.76 -0.6 c0.48 0 0.56 -0.16 1.08 -0.68 l0 0.04 c-0.04 0 0.68 -1.44 1.08 -1.92 c0.68 -0.32 -0.24 -2 1.76 -2 l0.12 0.08 c0 0.36 0.2 0.48 0.2 1.6 c-0.04 0.32 -0.08 1.36 -0.08 1.28 c0 0.44 0.08 1.12 0.08 1.68 c0 0.48 0 0.48 -0.08 0.72 c0 0.4 0.08 0.92 0.08 1.04 c0 0.52 -0.08 0.52 -0.08 0.92 c0 0.32 0.08 2.48 0.08 2.76 c0 0.16 -0.08 0.32 -0.08 0.56 l0 1.48 c0.04 0.04 -0.32 0.32 -0.52 0.32 c-1.28 0 -0.2 -0.24 -1.64 -2.84 c-1.12 -1.96 -1.48 -1.88 -2.12 -2.44 c0.04 0 -1.16 -0.4 -1.44 -0.4 l-0.12 -0.2 l-1.28 -0.04 c-0.6 0.32 -0.52 2 -0.52 1.36 c0 0.16 0.12 0.56 0.12 1.16 c0 0.28 -0.04 0.76 -0.12 1.2 c0 0.04 0.12 0.4 0.12 0.64 c0 0.4 -0.08 0.36 -0.08 0.52 c0 0.28 0.08 0.44 0.08 0.56 c-0.12 1.56 -0.16 4.36 -0.16 4.84 c0 2.52 -0.04 2.72 0.56 3.32 l1.72 0 c0.16 -0.04 0.36 -0.16 0.52 -0.16 c0.04 0 2.4 0.08 2.72 0.08 s0.04 -0.2 0.88 -0.2 c1.52 -0.6 1.44 -0.08 2.72 -1.08 c-0.04 0 -0.04 -0.04 -0.04 -0.04 c0 -0.12 1 -0.56 1.52 -1.2 c-0.04 0 -0.04 -0.04 -0.04 -0.04 c0 -0.6 1.76 -1.04 1.76 -2.48 c0 -0.16 0.72 -1.08 0.72 -1.32 c1 -2.52 0.36 -2.4 1.64 -2.4 c0.04 0 0.48 0 0.48 0.52 c0 2.6 -0.4 5.8 -0.4 7.6 c0 0.28 0.04 0.56 0.04 0.84 c0 0.48 -0.16 0.88 -1.12 0.88 l-15.4 0 c-2.32 0 -3.16 0.08 -7.44 0.08 c-0.76 -0.24 -0.56 -0.56 -0.56 -0.64 z M154.01999999999998 39.6 l0 -0.04 l0 0.12 c0 0.12 0.04 0.28 0.4 0.28 c0.08 0 0.2 0 0.32 -0.04 l0 -0.08 l-0.32 -0.36 c-0.04 0.08 -0.08 0.16 -0.16 0.2 c-0.04 0 -0.16 -0.04 -0.24 -0.12 l0 0.04 z M168.22 39.76 l0.04 0.08 c0.04 -0.04 0.04 -0.04 0.04 -0.16 z M166.66 39.68 c-0.12 0 -0.16 0 -0.2 0.08 l0.2 0 l0 -0.08 z M155.42 39.24 c0.08 0 0.24 0.08 0.28 0.08 c0.36 0 0.24 0 0.36 -0.08 c-0.08 0 -0.36 -0.08 -0.4 -0.08 c-0.16 0 -0.16 0 -0.24 0.08 z M177.38 39.24 c0.04 0.12 0.16 0.08 0.24 0.08 c-0.04 -0.08 -0.12 -0.08 -0.24 -0.08 z M158.5 39.24 c0 -0.04 -0.04 -0.04 -0.08 -0.04 s-0.08 0 -0.08 0.04 s0.04 0.08 0.08 0.08 s0.08 -0.04 0.08 -0.08 z M154.26 39.12 l0 0.04 l0.4 0 c-0.08 -0.04 -0.32 -0.04 -0.4 -0.04 z M157.94 33.8 l-0.04 -0.04 c-0.04 0 -0.04 0.04 -0.04 0.04 c0 0.04 0 0.08 0.04 0.08 c0 0 0.04 -0.04 0.04 -0.08 z M157.85999999999999 32.08 l0 0.16 c0.04 0 0.04 -0.04 0.04 -0.08 s0 -0.08 -0.04 -0.08 z M157.94 31.84 c0.04 0.08 0.12 0.08 0.24 0.08 c0 -0.08 0.04 -0.32 -0.08 -0.4 c0 0.08 -0.16 0.2 -0.16 0.32 z M158.17999999999998 31.08 c0 0.04 0 0.08 0.04 0.12 l0.04 -0.12 l-0.08 0 z M178.17999999999998 31.08 c-0.04 0 -0.08 0.04 -0.08 0.08 c0 0 0.04 0.04 0.08 0.04 s0.04 -0.04 0.04 -0.04 c0 -0.04 0 -0.08 -0.04 -0.08 z M178.38 31 c-0.04 0 -0.04 0.04 -0.04 0.08 c0 0 0 0.04 0.04 0.04 l0 -0.12 z M157.94 24.96 c-0.04 0 -0.08 0.04 -0.08 0.08 c0 0 0.04 0.04 0.08 0.04 s0.04 -0.04 0.04 -0.04 c0 -0.04 0 -0.08 -0.04 -0.08 z M158.22 24.96 c0 -0.04 0 -0.04 -0.04 -0.04 l0 0.08 c0.04 0 0.04 0 0.04 -0.04 z M157.94 23.2 l-0.04 -0.04 c-0.04 0 -0.04 0.04 -0.04 0.04 c0 0.04 0 0.08 0.04 0.08 c0 0 0.04 -0.04 0.04 -0.08 z M170.7 19.84 c0 -0.04 -0.04 -0.04 -0.08 -0.04 c0 0 -0.04 0 -0.04 0.04 s0.04 0.08 0.04 0.08 c0.04 0 0.08 -0.04 0.08 -0.08 z M176.38 17.92 c-0.04 0 -0.08 0.04 -0.08 0.08 c0 0 0.04 0.04 0.08 0.04 s0.04 -0.04 0.04 -0.04 c0 -0.04 0 -0.08 -0.04 -0.08 z M162.45999999999998 15.920000000000002 c-0.04 0.04 -0.04 0.12 -0.04 0.16 l0.44 0 c-0.04 -0.08 -0.2 -0.16 -0.4 -0.16 z M157.85999999999999 14.36 l0 0.16 c0.04 0 0.04 -0.04 0.04 -0.08 s0 -0.08 -0.04 -0.08 z M157.85999999999999 12.32 l0 0.16 c0.04 0 0.04 -0.04 0.04 -0.08 s0 -0.08 -0.04 -0.08 z M176.78 10.84 l0 0.4 l0.04 -0.2 c0 -0.08 0 -0.12 -0.04 -0.2 z M156.45999999999998 11.079999999999998 c-0.04 0 -0.04 0.04 -0.04 0.08 s0 0.08 0.04 0.08 s0.04 -0.04 0.04 -0.08 s0 -0.08 -0.04 -0.08 z M159.82 11.16 c0 -0.04 -0.04 -0.04 -0.04 -0.04 c-0.04 0 -0.04 0 -0.04 0.04 s0 0.08 0.04 0.08 c0 0 0.04 -0.04 0.04 -0.08 z M155.34 10.760000000000002 c-0.36 0 -0.16 0.28 -0.28 0.32 c0.24 0 0.28 -0.04 0.28 -0.12 c0 -0.04 -0.04 -0.08 -0.04 -0.12 s0.04 -0.04 0.04 -0.08 z M156.29999999999998 10.96 l0.12 0.08 l0.04 -0.08 l-0.08 -0.04 z M154.54 10.84 c-0.04 0 -0.04 0.04 -0.04 0.08 c0 0 0 0.04 0.04 0.04 s0.04 -0.04 0.04 -0.04 c0 -0.04 0 -0.08 -0.04 -0.08 z M154.94 10.68 l-0.28 0.08 l0.28 0 l0 -0.08 z M158.5 10.68 c-0.04 0 -0.08 0.04 -0.08 0.04 c0 0.04 0.04 0.04 0.08 0.04 c0 0 0.04 0 0.04 -0.04 z M162.54 10.68 l0 0.08 l0.04 0 z M155.14 10.68 l-0.08 0 c0 0.04 0 0.08 0.04 0.08 c0 0 0.04 -0.04 0.04 -0.08 z M156.06 10.64 c-0.08 0 -0.08 0.08 -0.08 0.08 c0.04 0 0.04 -0.04 0.08 -0.08 z M157.78 10.68 l-0.08 0 c0 0.04 0 0.08 0.04 0.08 c0 0 0.04 -0.04 0.04 -0.08 z M164.29999999999998 10.64 c-0.08 0 -0.16 0.04 -0.24 0.04 l0.28 0 z M153.94 10.64 c0 0 0 -0.04 -0.04 -0.04 l0 0.08 c0.04 0 0.04 0 0.04 -0.04 z M166.01999999999998 10.52 c0 0.16 0.04 0.08 0.08 0.12 c0 0 0.04 0 0.08 -0.04 l-0.08 -0.16 z M176.62 10.120000000000001 l0 0.48 l0.08 0 c0 -0.12 0.04 -0.48 -0.08 -0.48 z M155.57999999999998 10.2 c-0.04 0 -0.08 0.04 -0.08 0.04 c0 0.04 0.04 0.04 0.08 0.04 s0.04 0 0.04 -0.04 c0 0 0 -0.04 -0.04 -0.04 z M154.26 10.2 l-0.04 -0.08 z M154.73999999999998 10.04 c-0.08 0.04 -0.12 0.08 -0.12 0.12 l0.04 0.04 l0.08 0 l0 -0.16 z M189.344 38.84 c-0.36 0 -0.56 0.08 -0.8 0.12 c-0.36 0 -0.28 0 -0.32 -0.04 l-0.12 0.04 c0 0.12 0.04 0.12 0.12 0.16 c0 -0.04 -0.12 0.08 -0.2 0.24 l0.04 0 c0 0.04 -1.28 1.04 -1.48 1.04 c-0.92 0 -0.92 -1.08 -0.92 -1.24 c0 -0.08 0 -0.08 0.04 -0.2 c0 -4.48 -0.2 -3.8 -0.2 -6.48 c0 0 0.04 -0.04 0.04 -0.08 c0 -0.12 -0.08 -0.32 -0.08 -0.52 c0 -0.36 0.16 -0.6 1.2 -0.6 c0.12 0 0.28 0.12 0.64 0.76 c0 0.2 0.72 0.8 0.8 1.16 c-0.04 0.04 -0.08 0.08 -0.08 0.12 c0 0.16 0.6 0.4 0.6 0.64 c0 0.04 -0.04 0.08 -0.04 0.08 c0 0.24 0.4 0.44 0.4 0.56 c0.48 0.88 0.52 0.84 1.16 1.48 c0.2 0 1.68 2.64 2.8 2.64 c1.44 0.12 1.72 0.64 3.24 0.64 c0.84 0 0.72 -0.04 1 -0.2 c-0.08 0.08 -0.04 0.08 -0.08 0.08 c0 0 0.28 -0.4 1.6 -0.4 c0.6 0 1.76 -1.12 2 -1.28 c0.08 -0.08 0.48 -0.24 0.48 -0.32 c0 -0.24 0.84 -1.4 0.96 -1.52 c-0.04 -0.08 -0.04 -0.16 -0.04 -0.2 c0 -0.6 0.64 0.32 0.64 -3.4 c-0.04 -0.12 -0.16 -1.4 -0.44 -1.64 c-0.12 0 -0.12 -0.92 -1.08 -1.56 c0 -0.04 0.04 -0.24 0.04 -0.32 c-1.56 -0.08 -0.76 -0.88 -1.8 -0.88 c-1.96 0 -0.4 -0.6 -2.52 -0.6 c-0.2 -0.2 -1.96 -0.16 -2.36 -0.4 c-0.08 0 -0.36 0.08 -0.44 0.08 c-0.48 0 -0.08 -0.4 -1.16 -0.4 c-3.64 -0.2 -1.68 -0.88 -2.92 -0.88 l0 -0.08 c0.12 0 0.28 -0.04 0.4 0.08 c0 0 0.2 -0.08 0.2 -0.12 c0 0 -0.08 -0.08 -0.08 -0.12 l-1.24 0 c-0.4 -0.36 -0.36 -0.6 -0.68 -0.68 c0 -0.04 -0.44 0.04 -1.12 -0.88 c0 -0.28 -0.88 -1.32 -1.08 -1.48 c-0.36 -1.88 -0.8 -3 -0.8 -4.44 c0.08 -0.44 0 -1 0.16 -1.28 l0 0.04 c0.04 0 0.2 -1.36 0.32 -1.28 c-0.04 0 -0.08 -0.04 -0.08 -0.08 c0 -0.32 0.84 -1.2 0.84 -1.52 c-0.04 -0.04 -0.04 -0.08 -0.04 -0.08 c0 -0.28 0.64 -0.56 0.64 -0.68 s0.52 -0.96 0.76 -1.12 c-0.04 0.04 -0.04 0.08 -0.04 0.08 c-0.04 0 1.96 -1.32 2 -1.36 c2.44 -0.4 0.32 -1.08 3.04 -1.08 l3.92 0 c0.08 0 0.92 0 1.32 0.32 c1.64 0.08 1.36 1.04 2.08 1.04 c1.32 0 0.96 -0.08 1.36 -0.48 c-0.16 -0.2 1.08 -0.04 1.2 -0.56 l0.52 0 c0.08 0 0.4 0.32 0.44 0.4 c0.12 4.96 0.36 4.84 0.36 7.44 c0 0.2 -0.36 0.32 -0.52 0.64 l-0.56 0 l0 -0.16 c-0.12 0 -0.96 -0.56 -0.96 -1 l0 0.04 c-0.04 0 -0.32 -1 -0.76 -1.16 l0.04 0 c0 -0.12 -0.52 -0.52 -0.52 -0.8 c-0.6 -0.88 -0.52 -0.84 -1 -1.32 l0.04 0 c0 -0.04 -1 -0.64 -1 -0.92 c0 -0.6 -1.48 -1.32 -1.8 -1.64 c0.12 -0.24 -1.04 -0.56 -2.2 -0.56 c-0.04 0 -0.08 0.04 -0.12 0.04 c-0.4 0 -0.24 -0.68 -0.36 -0.68 c-0.08 0.08 -0.12 0.08 -0.16 0.16 c-0.04 0 -0.2 -0.04 -0.32 -0.08 c-0.24 0.88 -0.64 0.4 -0.76 0.64 c-0.24 -0.12 -0.08 -0.24 -0.24 -0.28 c-0.84 0.4 -0.6 0.36 -2.44 1.28 c-1.2 2.36 -0.56 -0.56 -1.88 3.04 l0 1.76 l0 -0.04 c0.04 0 0.2 1.56 0.56 1.76 c0.08 0.12 0.6 0.52 0.76 0.84 c0.28 0 0.64 1.04 1.8 1.04 c0.48 0.52 2.36 0.4 4.28 0.88 c0.56 0.16 3.48 0.16 4.16 0.96 l-0.04 0 c0 0.08 0.96 0.16 1.12 0.28 c0 -0.08 1.92 1.12 1.92 1.36 c0 0.04 0 0.04 -0.04 0.04 c0.68 0 1.36 1.52 1.64 1.72 c0.2 1.44 0.76 1 0.76 2.12 c0.48 1.52 0.4 1.88 0.4 3.76 c-0.12 0.12 -0.2 1.52 -0.4 1.6 c0 2.04 -1.04 1.92 -1.04 2.8 l-0.52 0.48 c0 0.08 -0.04 0.24 -0.04 0.24 c-0.8 0.72 -0.52 0.84 -0.88 1 c-0.12 0 -0.32 0.6 -1 0.8 c-0.76 1.16 -1.08 0.24 -1.88 1.4 c-3.6 0 0.08 0.88 -3.92 0.88 c-4.56 0 -2.96 -0.12 -4.44 -0.48 c-0.04 0 -0.04 0.04 -0.08 0.04 c-0.24 0 -0.6 -0.32 -0.92 -0.32 c0 -0.04 -0.6 -0.12 -0.6 -0.2 c0 0.04 0.04 0.04 0.04 0.04 c0 -0.04 -0.56 -0.84 -1 -0.84 c-0.08 0 -0.16 0.04 -0.24 0.08 z M196.944 40.28 c-0.04 0 -0.04 0.04 -0.04 0.08 c0 0 0 0.04 0.04 0.04 s0.04 -0.04 0.04 -0.04 c0 -0.04 0 -0.08 -0.04 -0.08 z M193.944 40.2 c-0.04 0 -0.04 0.04 -0.04 0.04 c0 0.04 0 0.04 0.04 0.04 s0.04 0 0.04 -0.04 c0 0 0 -0.04 -0.04 -0.04 z M197.744 40.2 c-0.04 0 -0.08 0.04 -0.08 0.08 s0.04 0.08 0.08 0.08 s0.04 -0.04 0.04 -0.08 s0 -0.08 -0.04 -0.08 z M196.864 40.12 c-0.04 0 -0.08 0.04 -0.08 0.08 s0.04 0.08 0.08 0.08 s0.04 -0.04 0.04 -0.08 s0 -0.08 -0.04 -0.08 z M197.744 40.04 c-0.08 0 -0.12 0 -0.12 0.04 l0.04 0.04 l0.08 0 l0 -0.08 z M194.824 40.04 c-0.04 0 -0.04 0 -0.04 0.04 c0 0 0 0.04 0.04 0.04 s0.04 -0.04 0.04 -0.04 c0 -0.04 0 -0.04 -0.04 -0.04 z M197.744 39.76 l0 0.2 c0.08 -0.04 0.16 -0.12 0.2 -0.2 l-0.2 0 z M198.824 39.64 c-0.36 0 -0.36 0.12 -0.36 0.24 c0.04 0 0.12 -0.04 0.2 -0.08 c0.04 0 0.16 0.04 0.24 0.08 l0.16 -0.08 s0 -0.16 -0.24 -0.16 z M194.064 39.68 l0 0.08 l0.16 0 l0 -0.08 l-0.16 0 z M196.064 39.68 c-0.04 0 -0.04 0.04 -0.04 0.08 c0 0 0 0.04 0.04 0.04 s0.04 -0.04 0.04 -0.04 c0 -0.04 0 -0.08 -0.04 -0.08 z M197.184 39.68 c-0.04 0 -0.08 0.04 -0.08 0.08 c0 0 0.04 0.04 0.08 0.04 s0.04 -0.04 0.04 -0.04 c0 -0.04 0 -0.08 -0.04 -0.08 z M193.504 39.44 c-0.04 0 -0.08 0 -0.08 0.04 l0.08 0 l0.04 0 c0 -0.04 0 -0.04 -0.04 -0.04 z M192.264 39.32 c-0.04 0 -0.08 0 -0.12 0.04 z M192.144 39.16 c-0.04 0 -0.08 0.04 -0.08 0.08 s0.04 0.08 0.08 0.08 s0.04 -0.04 0.04 -0.08 s0 -0.08 -0.04 -0.08 z M192.264 39.12 c-0.04 0 -0.04 0.04 -0.04 0.08 c0 0 0 0.04 0.04 0.04 s0.04 -0.04 0.04 -0.04 c0 -0.04 0 -0.08 -0.04 -0.08 z M186.544 39.04 c-0.04 0 -0.08 0.04 -0.08 0.08 c0 0 0.04 0.04 0.08 0.04 l0.04 -0.04 c0 -0.04 -0.04 -0.08 -0.04 -0.08 z M192.144 39.04 c-0.04 0 -0.08 0.04 -0.08 0.08 c0 0 0.04 0.04 0.08 0.04 s0.04 -0.04 0.04 -0.04 c0 -0.04 0 -0.08 -0.04 -0.08 z M185.984 38.92 c-0.04 0 -0.08 0.04 -0.08 0.04 c0 0.04 0.04 0.08 0.08 0.08 c0 0 0.04 -0.04 0.04 -0.08 z M192.464 38.96 l-0.08 0 c0 0.04 0 0.08 0.04 0.08 c0 0 0.04 -0.04 0.04 -0.08 z M200.304 38.92 c-0.04 0 -0.04 0.04 -0.04 0.04 l0.08 0 c0 0.04 0 -0.04 -0.04 -0.04 z M185.984 38.24 l0 -0.16 l0 0.16 z M202.144 38.16 c-0.04 0 -0.08 0.04 -0.08 0.08 l0.12 0 c0 -0.04 -0.04 -0.08 -0.04 -0.08 z M202.704 37.68 l0 0.08 l0.04 0 z M202.584 37.56 c-0.04 0 -0.08 0.04 -0.08 0.08 c0 0 0.04 0.04 0.08 0.04 s0.04 -0.04 0.04 -0.04 c0 -0.04 0 -0.08 -0.04 -0.08 z M202.824 37.6 l0.08 -0.04 z M203.064 37.36 l0 0 l-0.08 0.08 c0.04 -0.04 0.04 -0.08 0.08 -0.08 z M186.10399999999998 37.32 c-0.04 0 -0.08 0 -0.08 0.04 c0 0 0.08 0 0.08 -0.04 l0 0 z M185.984 36.92 l0 0.24 l0.04 0 c0 -0.04 0 -0.2 -0.04 -0.24 z M204.304 36.04 c-0.04 0 -0.04 0.04 -0.04 0.04 s0 0.04 0.04 0.04 s0.04 -0.04 0.04 -0.04 s0 -0.04 -0.04 -0.04 z M203.064 32.76 l0.08 0.04 l0.08 -0.04 l-0.16 0 z M185.984 32.12 l-0.08 0 c0 0.04 0 0.08 0.04 0.08 c0 0 0.04 -0.04 0.04 -0.08 z M205.904 31.439999999999998 l0 -0.04 c-0.04 0 -0.04 0 -0.04 0.04 s0 0.08 0.04 0.08 l0 -0.08 z M189.10399999999998 24.68 c-0.04 0 -0.08 0.04 -0.08 0.08 s0.04 0.08 0.08 0.08 s0.04 -0.04 0.04 -0.08 s0 -0.08 -0.04 -0.08 z M187.464 22.96 c-0.04 0 -0.08 0.04 -0.08 0.08 c0 0 0.04 0.04 0.08 0.04 l0.04 -0.04 c0 -0.04 -0.04 -0.08 -0.04 -0.08 z M200.304 22.56 c-0.04 0 -0.04 0.04 -0.04 0.08 c0 0 0 0.04 0.04 0.04 s0.04 -0.04 0.04 -0.04 c0 -0.04 0 -0.08 -0.04 -0.08 z M186.984 22.4 l0 0.08 l0.08 -0.08 l-0.08 0 z M190.784 22.04 c0 0 -0.04 0 -0.04 0.04 l0.08 0 c0 -0.04 -0.04 -0.04 -0.04 -0.04 z M194.744 21.52 c-0.08 0 -0.28 0.08 -0.28 0.12 s0.04 0.04 0.04 0.04 c0.08 0 0.16 -0.08 0.24 -0.16 z M186.224 20.36 c-0.04 0 -0.08 -0.04 -0.08 0.2 c0 0.04 0.04 0.12 0.04 0.12 c0.04 0 0.08 -0.08 0.08 -0.12 c0 -0.08 -0.04 -0.16 -0.04 -0.2 z M186.10399999999998 19.96 c-0.04 0 -0.08 0.04 -0.08 0.08 s0.04 0.08 0.08 0.08 l0 -0.16 z M203.224 12.920000000000002 c-0.04 0 -0.08 0.04 -0.08 0.08 c0 0 0.04 0.04 0.08 0.04 s0.04 -0.04 0.04 -0.04 c0 -0.04 0 -0.08 -0.04 -0.08 z M203.784 12.920000000000002 c-0.04 0 -0.04 0.04 -0.04 0.08 c0 0 0 0.04 0.04 0.04 s0.04 -0.04 0.04 -0.04 c0 -0.04 0 -0.08 -0.04 -0.08 z M203.944 12.920000000000002 c-0.04 0 -0.08 0.04 -0.08 0.08 c0 0 0.04 0.04 0.08 0.04 l0.04 -0.04 c0 -0.04 -0.04 -0.08 -0.04 -0.08 z M194.984 12.04 l0 -0.44 c0.04 -0.04 0.12 -0.08 0.16 -0.12 l0.08 0.08 c0 0.12 -0.16 0.32 -0.16 0.56 z M203.784 11.879999999999999 c-0.04 0 -0.04 0.04 -0.04 0.08 c0 0 0 0.04 0.04 0.04 s0.04 -0.04 0.04 -0.04 c0 -0.04 0 -0.08 -0.04 -0.08 z M190.664 11.68 c-0.2 0.04 -0.2 0.2 -0.2 0.2 c0.04 -0.04 0.2 -0.12 0.2 -0.16 l0 -0.04 z M189.704 11.48 c0 0.08 0.12 0.12 0.2 0.12 c-0.04 -0.12 -0.2 -0.12 -0.24 -0.12 l0.04 0 z M203.624 11.559999999999999 c0.04 0.04 0.08 0.04 0.12 0.04 c0.16 0 0.2 -0.12 0.2 -0.24 z M190.344 11.239999999999998 c-0.12 0 -0.08 0.12 -0.08 0.24 l0.08 0 l0 -0.24 z M198.264 10.879999999999999 c-0.12 0.2 -0.08 0.36 -0.08 0.52 c0.16 -0.04 0.2 -0.24 0.2 -0.44 c-0.04 -0.04 -0.04 -0.08 -0.12 -0.08 z M190.344 11.04 c-0.04 0 -0.08 0 -0.08 0.04 l0.08 0 l0.04 0 c0 -0.04 0 -0.04 -0.04 -0.04 z M203.224 10.96 c0 -0.04 -0.04 -0.04 -0.12 -0.04 c-0.04 0 -0.08 0 -0.08 0.04 s0.04 0.08 0.08 0.08 c0.08 0 0.12 -0.04 0.12 -0.08 z M203.38400000000001 10.84 c-0.04 0 -0.08 0.04 -0.08 0.04 l0.04 0 l0.04 0 l0 -0.04 z M199.424 10.84 l-0.04 -0.04 z M196.944 10.8 c0 -0.04 -0.04 -0.04 -0.04 -0.04 s-0.04 0 -0.04 0.04 s0.04 0.04 0.04 0.04 s0.04 0 0.04 -0.04 z M202.38400000000001 10.8 c0 -0.04 -0.04 -0.04 -0.04 -0.04 c-0.04 0 -0.04 0 -0.04 0.04 s0 0.04 0.04 0.04 c0 0 0.04 0 0.04 -0.04 z M202.904 10.719999999999999 c-0.04 0 -0.08 0.04 -0.08 0.08 c0 0 0.04 0.04 0.08 0.04 s0.04 -0.04 0.04 -0.04 c0 -0.04 0 -0.08 -0.04 -0.08 z M203.784 10.64 l0 0.16 l0.08 -0.08 z M191.624 10.32 c0 0.12 0.08 0.28 0.08 0.4 l0.08 -0.2 s-0.04 -0.16 -0.08 -0.28 z M198.664 10.48 c-0.04 0 -0.08 0.04 -0.08 0.04 s0.04 0.04 0.08 0.04 s0.04 -0.04 0.04 -0.04 s0 -0.04 -0.04 -0.04 z M203.024 10.239999999999998 c-0.12 0.04 -0.16 0.16 -0.2 0.28 c0.24 0 0.2 -0.12 0.2 -0.28 z M203.784 10.48 l0 0.04 l0.08 0 z M203.784 10.239999999999998 c-0.04 0 -0.04 0.04 -0.04 0.04 c0 0.04 0 0.04 0.04 0.04 s0.04 0 0.04 -0.04 c0 0 0 -0.04 -0.04 -0.04 z M195.424 10.079999999999998 c-0.04 0.12 0.2 0.16 0.2 0.16 c0.08 -0.12 0.48 0.04 0.44 -0.16 l-0.64 0 z M197.944 10.16 l-0.08 0 c0 0.04 0 0.08 0.04 0.08 c0 0 0.04 -0.04 0.04 -0.08 z M193.184 10 l0 0.08 l0.16 0 l0 -0.08 l-0.16 0 z M193.944 9.920000000000002 c-0.12 0 -0.28 0.12 -0.32 0.16 l0.32 0 l0 -0.16 z M196.944 10 l0 0.08 l0.24 0 z M219.62800000000001 40.2 c0 -0.08 0 -0.16 0.04 -0.24 c0 -0.08 -0.04 -0.16 -0.08 -0.16 c0 0.16 -0.2 0.32 -0.24 0.32 c-0.16 -0.16 -0.36 -0.32 -0.44 -0.52 c0 -1.32 3.64 -0.36 4.28 -1.04 l-0.08 -3.76 l0 -9.56 l0.08 -0.08 c0 -1.48 -0.16 -2.68 -0.16 -4 c0 -2.04 0.16 -5.4 0.16 -6.68 c0 -1.84 -0.04 -2.6 -0.52 -3.28 l-0.48 0 l0 0.16 c-2.32 0 -1.84 0.36 -2.76 0.76 c0.08 0 -1 0.12 -1 0.64 l0.04 0.04 c0 0.08 -0.92 0.08 -0.92 0.68 c-0.92 0 -1.92 2.52 -2.36 2.96 c0 0.36 -0.84 1.24 -0.84 2.04 l0 -0.04 s-0.04 1.52 -0.84 1.52 c-0.64 0 -0.88 0.04 -1.04 -0.44 c0 -3.16 0.48 -1.88 0.48 -9.12 c9.64 -0.48 19 -0.52 23.68 -0.52 c0.68 0 1.28 0.04 1.76 0.04 c0.2 0 0.76 -0.2 0.76 1.2 c0 0.32 0 0.24 -0.08 0.36 c0.16 0.76 -0.04 2.04 0.28 2.84 c-0.04 0.04 -0.12 0.4 -0.12 0.6 c0 0.64 0.36 2.4 0.36 3.88 c0 1 -0.32 1.04 -0.96 1.04 c-0.44 0 -1.28 -2.2 -1.48 -2.84 c0.36 0.04 -0.44 -0.04 -0.44 -0.8 c-0.92 -1.24 -0.6 -1.2 -1.36 -1.96 c-0.64 -1.28 -0.92 -0.8 -1.48 -1.4 l0 0.04 c0.04 0 -0.32 -0.76 -1.08 -0.76 c-0.04 -0.36 -0.48 -0.16 -0.64 -0.52 c-1.44 -0.08 -1.32 -0.48 -1.76 -0.48 l-0.12 0.04 c-0.84 0 -0.56 0 -0.8 -0.04 c-0.08 0 -0.16 0.04 -0.16 0.04 c0 0.04 0.04 0.08 0.04 0.08 c0 0.2 -0.44 0.08 -0.44 1 c0 1.48 0.12 5.16 0.12 9.24 l0 7.6 c0 0.08 -0.08 0.44 -0.08 0.48 c0 -0.04 0 0.2 0.08 0.32 c0 0.2 0.08 3.44 0.08 3.96 c0 1.04 -0.08 2.24 -0.08 3.04 c0 0.88 0.04 1.8 0.32 1.92 c1.96 0 2 -0.08 2.92 -0.08 c0.24 0 0.76 0.08 0.76 0.8 c0 0.28 -0.32 0.52 -0.56 0.68 c-0.36 0 -1.2 -0.32 -1.72 -0.32 c-0.24 0 -0.4 0.12 -0.56 0.12 c-0.32 -0.04 -0.64 -0.12 -0.88 -0.12 l-0.08 0.08 c-0.36 0 -0.8 0.12 -1 0.12 c-0.08 0 -0.2 -0.08 -0.32 -0.08 c-0.04 0 -0.16 0.04 -0.32 0.12 c-0.4 0 -0.84 0 -0.88 -0.12 l-2.08 0 s-0.08 0.12 -0.16 0.12 c0.16 -0.04 -0.24 0.12 -0.24 -0.12 c-0.32 0 -0.56 0.16 -0.96 0.16 c-0.28 0 -0.48 -0.04 -0.6 -0.2 l0.12 -0.08 l-0.68 0 c0 0.16 0 0.32 -0.08 0.4 l-0.08 -0.16 c-0.16 0 -0.16 0.2 -0.28 0.2 c-0.16 0 -0.4 -0.24 -0.44 -0.24 l0.16 -0.12 c0 -0.12 0 -0.16 -0.08 -0.2 l0 0.04 c-0.04 0 -0.08 -0.04 -0.16 -0.04 s-0.2 0.04 -0.24 0.2 l0.08 0.24 l-0.08 0.08 l-1.24 0 z M219.428 39.88 c-0.04 0 -0.08 0.04 -0.08 0.04 c0 0.04 0.04 0.04 0.08 0.04 s0.04 0 0.04 -0.04 c0 0 0 -0.04 -0.04 -0.04 z M222.988 39.8 c-0.04 0 -0.08 0.04 -0.08 0.08 s0.04 0.08 0.08 0.08 c0 0 0.04 -0.04 0.04 -0.08 s-0.04 -0.08 -0.04 -0.08 z M219.308 39.76 l0 0.04 l0.04 0 z M224.148 39.76 l-0.08 0.04 l0.16 0 z M223.748 39.76 c0 -0.04 -0.04 -0.04 -0.08 -0.04 s-0.08 0 -0.08 0.04 s0.04 0.04 0.08 0.04 s0.08 0 0.08 -0.04 z M224.62800000000001 39.76 l0 -0.04 c-0.04 0 -0.04 0 -0.04 0.04 s0 0.04 0.04 0.04 l0 -0.04 z M224.90800000000002 39.6 c-0.04 0 -0.08 0.04 -0.08 0.08 s0.04 0.08 0.08 0.08 s0.04 -0.04 0.04 -0.08 s0 -0.08 -0.04 -0.08 z M229.348 39.6 l0 0.08 l0.2 0 c-0.04 -0.08 -0.12 -0.08 -0.2 -0.08 z M231.428 39.6 l-0.08 0.08 l0.08 0 l0 -0.08 z M231.828 39.56 c-0.08 0 -0.08 0.08 -0.08 0.12 l0.08 0 l0 -0.12 z M219.228 39.36 c0 0.08 0 0.16 0.12 0.16 s0.24 -0.04 0.24 -0.08 c0 -0.28 -0.04 -0.2 -0.24 -0.32 c-0.12 0.08 -0.12 0.08 -0.12 0.24 z M220.548 39.36 c-0.08 0.04 -0.2 0.08 -0.2 0.12 s0.08 0.04 0.12 0.04 c0.08 0 0.12 0 0.12 -0.08 z M221.308 39.28 c-0.12 0.08 -0.08 0.16 -0.08 0.24 l0.4 0 c-0.08 -0.12 -0.28 -0.12 -0.32 -0.24 z M222.668 39.52 c0 -0.04 -0.04 -0.04 -0.08 -0.04 s-0.08 0 -0.08 0.04 s0.04 0.04 0.08 0.04 s0.08 0 0.08 -0.04 z M231.108 39.52 l0.04 -0.08 z M223.548 38 c0 0 -0.04 0.04 -0.04 0.08 s0.04 0.08 0.04 0.08 s0.04 -0.04 0.04 -0.08 s-0.04 -0.08 -0.04 -0.08 z M228.90800000000002 31.119999999999997 c-0.04 0 -0.08 0.04 -0.08 0.08 s0.04 0.08 0.08 0.08 s0.04 -0.04 0.04 -0.08 s0 -0.08 -0.04 -0.08 z M223.428 24.28 c-0.04 0 -0.08 0.04 -0.08 0.08 s0.04 0.08 0.08 0.08 s0.04 -0.04 0.04 -0.08 s0 -0.08 -0.04 -0.08 z M213.708 19.6 c-0.04 0 -0.08 0.04 -0.08 0.08 c0 0 0.04 0.04 0.08 0.04 s0.04 -0.04 0.04 -0.04 c0 -0.04 0 -0.08 -0.04 -0.08 z M239.148 19.2 c-0.32 0.04 -0.32 0.4 -0.32 0.48 c0.24 -0.24 0.32 -0.24 0.32 -0.48 z M213.828 19.08 l0 0.28 c0.04 -0.04 0.04 -0.2 0.04 -0.28 l-0.04 0 z M238.108 19.04 l0 0.04 l0.16 0 z M239.148 18.24 l0 0.08 l0.04 0 z M213.108 15.68 c0 0 -0.04 0.08 -0.04 0.16 l0.04 0.08 c0.04 0 0.04 -0.08 0.04 -0.12 s0 -0.08 -0.04 -0.12 z M238.668 15.8 l-0.04 0.04 c0 0.04 0.04 0.08 0.04 0.08 c0.04 0 0.04 -0.04 0.04 -0.08 c0 0 0 -0.04 -0.04 -0.04 z M213.108 15.48 c0 0 -0.04 0 -0.04 0.04 s0.04 0.08 0.04 0.08 c0.04 0 0.04 -0.04 0.04 -0.08 s0 -0.04 -0.04 -0.04 z M213.228 12.2 c-0.08 0.04 -0.12 0.08 -0.16 0.16 c0.16 0 0.16 -0.04 0.16 -0.16 z M217.948 11.879999999999999 c-0.04 0 -0.08 0 -0.08 0.04 s0.04 0.08 0.08 0.08 s0.04 -0.04 0.04 -0.08 s0 -0.04 -0.04 -0.04 z M218.108 11.48 c0 0 -0.04 0 0.08 0.12 c0.04 -0.04 0.08 -0.08 0.08 -0.12 l-0.16 0 z M219.308 11.280000000000001 c-0.04 0 -0.08 0.04 -0.08 0.08 s0.04 0.08 0.08 0.08 c0 0 0.04 -0.04 0.04 -0.08 s-0.04 -0.08 -0.04 -0.08 z M221.228 10.96 c0 0.04 -0.12 0.2 -0.2 0.24 l0.28 0 c0 -0.08 0.04 -0.16 -0.08 -0.24 z M222.90800000000002 10.96 l0 0.08 l0.08 -0.08 l-0.08 0 z M217.948 10.8 c-0.04 0 -0.08 0.04 -0.08 0.08 s0.04 0.08 0.08 0.08 s0.04 -0.04 0.04 -0.08 s0 -0.08 -0.04 -0.08 z M218.148 10.8 c-0.04 0.04 -0.04 0.04 -0.04 0.08 c0 -0.04 0.04 -0.08 0.04 -0.08 z M219.18800000000002 10.719999999999999 l0 0.16 l0.04 -0.08 z M220.228 10.8 c-0.04 0 -0.08 0.04 -0.08 0.04 c0 0.04 0.04 0.04 0.08 0.04 c0 0 0.04 0 0.04 -0.04 z M232.90800000000002 10.8 l0 0.08 s0.16 0.08 0.16 -0.08 l-0.16 0 z M213.108 10.8 l0.12 0 l-0.04 0 c0.12 0 0.28 -0.08 0.36 -0.08 c0 0.04 -0.08 -0.28 -0.16 -0.32 c-0.2 0 -0.2 0.28 -0.28 0.4 z M214.588 10.719999999999999 c-0.04 0 -0.04 0.04 -0.04 0.08 l0.08 0 c0 -0.04 0 -0.08 -0.04 -0.08 z M231.90800000000002 10.719999999999999 c0.08 0.08 0.16 0.08 0.24 0.08 c-0.04 -0.08 -0.12 -0.08 -0.24 -0.08 z M233.388 10.559999999999999 c-0.04 0 -0.04 0.04 -0.04 0.08 s0 0.08 0.04 0.08 s0.04 -0.04 0.04 -0.08 s0 -0.08 -0.04 -0.08 z M238.508 10.239999999999998 l0.08 0.08 l0 -0.08 l-0.08 0 z M263.752 39.96 c-0.24 0 -0.64 -0.12 -0.64 -0.6 c0 -0.56 0.56 -0.4 0.84 -0.56 l2.6 0 c0.44 -0.48 0.4 -0.36 0.4 -1.16 c0 -0.44 -0.08 -3.8 -0.08 -4.24 c0 -2 0.04 -3.64 0.16 -5.28 c0 -0.12 0 -0.12 -0.08 -0.24 l0 -2.16 c-0.2 -0.2 -0.28 -0.68 -0.44 -0.68 c-1.44 0 -1.8 0.08 -2.52 0.08 c-0.16 0 -1.72 -0.08 -2.08 -0.08 l0 -0.08 l-0.56 0 l0.12 0.08 c-1.32 0 -1.16 0.12 -2.36 0.12 c-0.32 0 -1.56 -0.04 -1.96 -0.04 l-1.28 0 l-0.16 0.36 c0 2.12 -0.04 4.68 -0.16 5.52 c0 0.16 0.16 0.32 0.16 0.72 l0 6.72 c0 0.16 0.28 0.4 0.48 0.64 c0.88 0 1.88 -0.24 2.44 -0.24 c0.24 0 0.92 -0.04 0.92 0.72 c-0.08 -0.04 -0.12 -0.12 -0.12 -0.24 c-0.04 0 -0.2 0.16 -0.2 0.44 c0.08 0 0.12 0 0.2 -0.04 c-0.04 0.24 -0.28 0.24 -0.48 0.24 l0 -0.24 c-0.12 0 -0.28 0.16 -0.36 0.24 c-1.04 0 -8.64 0.12 -11.88 0.12 c-0.2 0 -0.48 -0.04 -0.64 -0.32 l0 -0.52 l-0.04 0 c0 -0.04 0.96 -0.44 0.96 -0.44 c0.6 0 0.96 0.2 2.2 0.2 c0.68 0 0.44 -0.28 0.72 -0.4 c0 -2.32 -0.08 -2.72 -0.08 -3.36 c0 -1.88 0.08 -2.56 0.08 -3.4 c0 -0.6 -0.08 -2.04 -0.08 -2.96 c0 -0.08 0.08 -0.56 0.08 -0.64 c0 -0.52 -0.08 -1.12 -0.08 -2.52 l0.08 -0.12 c0 -0.16 -0.08 -0.32 -0.08 -0.48 l0 -6.12 l0.12 -0.08 c0 -0.04 -0.12 -0.2 -0.12 -0.52 l0 -6.76 s-0.12 -0.08 -0.12 -0.16 c0 -0.4 -1.56 -0.36 -1.84 -0.4 c-0.04 0 -0.56 0.08 -0.76 0.08 c-0.84 0 -1.08 -0.16 -1.2 -0.44 c0 -0.32 -0.2 -0.72 0.76 -0.88 l12.44 0 c0.04 0.04 0.44 0 0.44 0.64 c0 0.32 -0.52 0.76 -0.68 0.76 l-0.08 0.04 s0.04 0 0.04 -0.04 c0 0 -0.16 -0.16 -1.2 -0.16 l-1.36 0 c-0.72 0 -0.72 1.88 -0.72 1.96 c0 0.12 0.08 0.32 0.08 0.56 c-0.08 0.24 -0.08 0.4 -0.08 0.56 c0 0.48 0.08 0.68 0.08 1 c-0.08 0.12 -0.08 0.24 -0.08 0.28 c0 0.16 0.08 0.32 0.08 0.44 l0 4.96 c0 0.2 -0.12 0.72 -0.12 0.72 c0 0.2 0.12 0.68 0.12 0.88 c-0.08 0.12 -0.08 0.16 -0.08 0.2 s0.12 -0.04 0.12 0.04 c0 0.16 -0.16 0.44 -0.16 0.72 c0 0.32 0.2 0.64 0.92 0.64 c2.36 0 4.12 -0.16 6.12 -0.16 c0 0 0.24 0.04 0.28 0.04 l2.4 0 c0.12 0 0.28 0.12 0.52 0.12 c0.36 0 1.12 -0.12 1.12 -0.72 c0 -2.52 -0.08 -2.84 -0.08 -4.12 c0 -0.24 0.08 -0.6 0.08 -1 c0 -1.2 -0.08 -2 -0.08 -2.88 l0.04 -0.28 s-0.04 -0.32 -0.04 -0.44 c0 -0.72 0.04 -1 0.04 -2.12 l-0.04 0.04 c-0.04 -0.12 0.24 -1.48 -0.6 -1.48 c-0.08 0 -0.2 0.04 -0.28 0.04 c-0.4 0 -1.12 -0.08 -1.08 -0.08 c-0.28 0 -0.52 0.08 -0.72 0.08 c-1.12 0 -1.2 -0.6 -1.2 -0.6 c0 -0.4 0.68 -0.8 1.8 -0.8 c0.04 0.04 -0.04 -0.04 0.44 0.08 c0.68 0 0.68 0.04 0.76 -0.08 c0.48 0 0.92 0.12 1.4 0.12 c0.08 0 0.16 -0.04 0.28 -0.12 c0.08 0 0.28 0.08 0.36 0.08 l3.44 0 c0.16 0 0.56 -0.08 0.72 -0.12 c0.08 0 0.08 0.12 0.08 0.12 l1.92 0 l0.12 -0.08 c0.6 0.16 1.52 0.08 1.88 0.16 l0.24 0.24 c0 0.6 0.08 1.32 -1.28 1.32 c0 -0.24 -2.32 -0.32 -2.32 -0.32 l0 0 c0 0.04 0.04 -0.08 -0.04 -0.08 c-0.12 0 -0.2 0.48 -0.36 3.6 c0 0.16 0.08 0.24 0.08 0.48 c0 0.12 0 0.2 -0.08 0.28 c0 0.04 0.08 0.2 0.08 0.28 l0.08 2.16 l0 16.24 c0 0.08 0.08 0.52 0.08 0.56 c0 0.12 -0.08 0.28 -0.08 0.8 c0 0.16 0 0.88 0.08 1.08 l0 0.2 c0 2 0.2 2.16 0.96 2.16 c0.2 0 0.44 -0.04 0.68 -0.04 c0.12 0 0.32 0.04 0.52 0.04 c0.24 0 0.48 -0.04 0.6 -0.16 c0.96 0.2 1.08 0.4 1.08 0.96 c0 0.24 -0.12 0.6 -1.04 0.6 c-1.36 0 -6.72 -0.28 -11.64 -0.28 z M246.392 39.84 l-0.04 -0.08 z M247.87199999999999 39.76 l0 0.08 l0.64 0 c0 -0.2 -0.2 -0.32 -0.32 -0.32 c-0.12 0.12 -0.24 0.28 -0.32 0.24 z M258.472 39.76 l0.12 0.08 c-0.04 0 -0.08 -0.04 -0.12 -0.08 z M266.512 39.76 l0 0.08 l0.04 -0.08 l-0.04 0 z M257.352 39.52 c0 0.28 0.12 0.24 0.16 0.32 l0 -0.36 c-0.08 0 -0.12 0 -0.16 0.04 z M265.272 39.72 l0 0.04 l0.08 0 z M266.792 39.72 l0 0.04 l0.04 0 z M264.352 39.56 l0 0.16 c0.04 -0.04 0.08 -0.08 0.08 -0.16 l-0.08 0 z M248.91199999999998 39.48 c0.2 0 0.32 0.04 0.52 0.16 c-0.08 0 0.2 0 0.2 -0.08 s-0.4 -0.2 -0.72 -0.24 l0 0.16 z M263.352 39.24 l-0.08 0.24 l0.08 0 l0 -0.24 z M246.47199999999998 39.16 c-0.04 0 -0.08 0.04 -0.08 0.08 s0.04 0.08 0.08 0.08 s0.04 -0.04 0.04 -0.08 s0 -0.08 -0.04 -0.08 z M267.952 39.16 l-0.08 0 c0 0.04 0 0.08 0.04 0.08 c0 0 0.04 -0.04 0.04 -0.08 z M250.63199999999998 27.92 c-0.04 0 -0.08 0.04 -0.08 0.08 c0 0 0.04 0.04 0.08 0.04 l0.04 -0.04 c0 -0.04 -0.04 -0.08 -0.04 -0.08 z M254.392 25.72 c-0.08 0 -0.12 0 -0.12 0.08 l0.12 0 l0 -0.08 z M250.152 23 c-0.04 0 -0.08 0.04 -0.08 0.08 s0.04 0.08 0.08 0.08 s0.04 -0.04 0.04 -0.08 s0 -0.08 -0.04 -0.08 z M249.992 19 l0.04 0 l-0.08 0 s-0.04 0 0.04 0 z M253.91199999999998 18.84 c0 0.04 -0.04 0.04 -0.04 0.08 s0.04 0.04 0.08 0.08 l0.04 -0.16 l-0.08 0 z M250.152 16 l0 0.08 l0.04 0.04 c0.04 0 0.08 -0.04 0.12 -0.12 l-0.16 0 z M250.07199999999997 15.32 l0.08 0.04 l0.08 -0.04 l-0.16 0 z M267.712 15.079999999999998 c-0.04 0 -0.04 0.04 -0.04 0.08 s0 0.08 0.04 0.08 s0.04 -0.04 0.04 -0.08 s0 -0.08 -0.04 -0.08 z M248.87199999999999 10.719999999999999 c0 0.04 0 0.08 0.04 0.12 c0.08 -0.04 0.08 -0.12 0.08 -0.16 c-0.08 0 -0.12 0.04 -0.12 0.04 z M272.272 10.719999999999999 l0 0.04 l0.04 0 c0 -0.04 0 -0.04 -0.04 -0.04 z M267.272 10.719999999999999 l-0.16 -0.04 z M273.792 10.68 c-0.04 0 -0.08 0.04 -0.08 0.04 s0.04 0.04 0.08 0.04 l0.04 -0.04 z M246.552 10.2 c-0.32 0 -0.32 0.16 -0.32 0.48 c0 0 0.32 0 0.32 -0.48 z M275.912 10.280000000000001 l0 0.32 l0.2 0 c0 -0.28 -0.24 -0.32 -0.2 -0.32 z M249.232 10.48 c0 0 -0.04 0.04 -0.04 0.08 l0.04 0.04 c0.04 0 0.04 -0.04 0.04 -0.04 c0 -0.04 0 -0.08 -0.04 -0.08 z M256.43199999999996 10.280000000000001 c0.04 0.08 0.08 0.16 0.08 0.24 c0.2 0 0.16 0 0.24 -0.04 c0 -0.16 -0.12 -0.2 -0.2 -0.2 l-0.12 0 z M265.792 10.36 c0 0 -0.04 0 -0.04 0.04 s0.04 0.08 0.04 0.08 c0.04 0 0.04 -0.04 0.04 -0.08 s0 -0.04 -0.04 -0.04 z M275.272 10 c0 0.04 0 0.36 0.2 0.48 c0 -0.08 0.04 -0.28 0.04 -0.48 l-0.24 0 z M263.352 10.16 l0 0.2 c0.08 -0.04 0.08 -0.12 0.08 -0.2 l-0.08 0 z M268.952 10.280000000000001 c-0.04 0 -0.04 0.04 -0.04 0.04 c0 0.04 0 0.04 0.04 0.04 s0.04 0 0.04 -0.04 c0 0 0 -0.04 -0.04 -0.04 z M271.192 10.2 l-0.04 0.04 c0 0.04 0.04 0.04 0.04 0.04 c0.04 0 0.04 0 0.04 -0.04 c0 0 0 -0.04 -0.04 -0.04 z M249.232 10.16 c0 0 -0.04 0.04 -0.04 0.08 l0.04 0.04 c0.04 0 0.04 -0.04 0.04 -0.04 c0 -0.04 0 -0.08 -0.04 -0.08 z M258.072 10.2 l-0.04 -0.04 c-0.04 0 -0.04 0.04 -0.04 0.04 c0 0.04 0 0.08 0.04 0.08 c0 0 0.04 -0.04 0.04 -0.08 z M256.43199999999996 10.079999999999998 c-0.04 0 -0.08 0.04 -0.08 0.08 c0 0 0.04 0.04 0.08 0.04 l0 -0.12 z M267.272 10.079999999999998 c-0.04 0 -0.04 0.04 -0.04 0.08 c0 0 0 0.04 0.04 0.04 s0.04 -0.04 0.04 -0.04 c0 -0.04 0 -0.08 -0.04 -0.08 z M274.712 10.16 c0 -0.04 -0.04 -0.04 -0.08 -0.04 s-0.08 0 -0.08 0.04 s0.04 0.04 0.08 0.04 s0.08 0 0.08 -0.04 z M283.116 39.44 l0 -0.2 l0.48 -0.48 l1.96 0 l0.16 0.08 l0.92 0.08 c0.16 0.08 0.36 -0.52 0.48 -0.52 l0 -4.84 c0 -0.04 -0.08 -0.52 -0.08 -0.56 c0 0 0.08 -0.96 0.08 -1.16 c0.08 -0.12 -0.12 0.16 -0.12 -0.64 c0 -0.08 0.12 -0.16 0.12 -0.32 c0 -0.28 -0.08 -0.44 -0.08 -0.64 c0 -0.08 0.08 -0.36 0.08 -0.52 l0 -2.52 c0 -0.36 -0.12 -1 -0.12 -1.48 l0.04 -3.44 c-0.04 -0.16 -0.04 -1.2 -0.04 -1.4 c0 -0.12 0.04 -1.04 0.04 -1.16 c0 -0.04 -0.04 -2.08 -0.04 -2.32 c0 -2.48 0.04 -2.92 0.04 -4 c0 -0.48 0 -1.52 -0.04 -1.84 l-0.24 -0.28 s-0.8 -0.04 -1.12 -0.04 c-0.52 0 -0.92 0.12 -1.4 0.12 c-0.44 -0.08 -0.88 0.24 -1.28 -0.68 c0 -0.36 0.08 -0.8 0.44 -0.88 c8.16 0 9 0.08 12.24 0.08 c7.76 0 7.32 -0.08 10.56 -0.08 c0.4 0 0.84 7.32 0.84 7.68 c0 0.04 0.04 0.04 0.04 0.08 c0 0.48 -0.72 0.84 -0.96 0.84 c-0.52 0 -0.8 -0.56 -0.96 -1.2 c0.16 0 -1.72 -3.08 -1.64 -2.92 c-0.52 -0.52 -0.56 -0.6 -0.88 -1 c0 -0.36 -1.72 -1.16 -1.92 -1.44 c0 0.04 -0.04 0.04 -0.04 0.04 c-0.12 0 -0.24 -0.48 -1.08 -0.48 c-1.12 0 -1.04 -0.16 -2.76 -0.16 l0 -0.08 l-1.24 0 l-0.08 0.08 l-0.52 0 l0.28 -0.08 c-0.92 0 -1.32 -0.12 -1.56 -0.12 c-0.36 0 -0.8 0.2 -0.8 1.36 c0 2.24 0.08 3.44 0.08 4 c0 0.6 -0.08 2.36 -0.08 2.6 c0 0.68 0.16 1.24 0.16 1.72 c-0.08 0 -0.16 0.28 -0.16 0.4 s0.16 0.88 0.16 1.24 c0 0.08 -0.08 0.2 -0.08 0.24 c0 0.12 -0.12 1.64 0.28 1.64 c0.92 0 1.6 -0.24 2.32 -0.24 l0 0.04 c0.12 0 0.48 -0.6 0.76 -0.6 c0.48 0 0.56 -0.16 1.08 -0.68 l0 0.04 c-0.04 0 0.68 -1.44 1.08 -1.92 c0.68 -0.32 -0.24 -2 1.76 -2 l0.12 0.08 c0 0.36 0.2 0.48 0.2 1.6 c-0.04 0.32 -0.08 1.36 -0.08 1.28 c0 0.44 0.08 1.12 0.08 1.68 c0 0.48 0 0.48 -0.08 0.72 c0 0.4 0.08 0.92 0.08 1.04 c0 0.52 -0.08 0.52 -0.08 0.92 c0 0.32 0.08 2.48 0.08 2.76 c0 0.16 -0.08 0.32 -0.08 0.56 l0 1.48 c0.04 0.04 -0.32 0.32 -0.52 0.32 c-1.28 0 -0.2 -0.24 -1.64 -2.84 c-1.12 -1.96 -1.48 -1.88 -2.12 -2.44 c0.04 0 -1.16 -0.4 -1.44 -0.4 l-0.12 -0.2 l-1.28 -0.04 c-0.6 0.32 -0.52 2 -0.52 1.36 c0 0.16 0.12 0.56 0.12 1.16 c0 0.28 -0.04 0.76 -0.12 1.2 c0 0.04 0.12 0.4 0.12 0.64 c0 0.4 -0.08 0.36 -0.08 0.52 c0 0.28 0.08 0.44 0.08 0.56 c-0.12 1.56 -0.16 4.36 -0.16 4.84 c0 2.52 -0.04 2.72 0.56 3.32 l1.72 0 c0.16 -0.04 0.36 -0.16 0.52 -0.16 c0.04 0 2.4 0.08 2.72 0.08 s0.04 -0.2 0.88 -0.2 c1.52 -0.6 1.44 -0.08 2.72 -1.08 c-0.04 0 -0.04 -0.04 -0.04 -0.04 c0 -0.12 1 -0.56 1.52 -1.2 c-0.04 0 -0.04 -0.04 -0.04 -0.04 c0 -0.6 1.76 -1.04 1.76 -2.48 c0 -0.16 0.72 -1.08 0.72 -1.32 c1 -2.52 0.36 -2.4 1.64 -2.4 c0.04 0 0.48 0 0.48 0.52 c0 2.6 -0.4 5.8 -0.4 7.6 c0 0.28 0.04 0.56 0.04 0.84 c0 0.48 -0.16 0.88 -1.12 0.88 l-15.4 0 c-2.32 0 -3.16 0.08 -7.44 0.08 c-0.76 -0.24 -0.56 -0.56 -0.56 -0.64 z M283.516 39.6 l0 -0.04 l0 0.12 c0 0.12 0.04 0.28 0.4 0.28 c0.08 0 0.2 0 0.32 -0.04 l0 -0.08 l-0.32 -0.36 c-0.04 0.08 -0.08 0.16 -0.16 0.2 c-0.04 0 -0.16 -0.04 -0.24 -0.12 l0 0.04 z M297.716 39.76 l0.04 0.08 c0.04 -0.04 0.04 -0.04 0.04 -0.16 z M296.156 39.68 c-0.12 0 -0.16 0 -0.2 0.08 l0.2 0 l0 -0.08 z M284.916 39.24 c0.08 0 0.24 0.08 0.28 0.08 c0.36 0 0.24 0 0.36 -0.08 c-0.08 0 -0.36 -0.08 -0.4 -0.08 c-0.16 0 -0.16 0 -0.24 0.08 z M306.876 39.24 c0.04 0.12 0.16 0.08 0.24 0.08 c-0.04 -0.08 -0.12 -0.08 -0.24 -0.08 z M287.996 39.24 c0 -0.04 -0.04 -0.04 -0.08 -0.04 s-0.08 0 -0.08 0.04 s0.04 0.08 0.08 0.08 s0.08 -0.04 0.08 -0.08 z M283.756 39.12 l0 0.04 l0.4 0 c-0.08 -0.04 -0.32 -0.04 -0.4 -0.04 z M287.436 33.8 l-0.04 -0.04 c-0.04 0 -0.04 0.04 -0.04 0.04 c0 0.04 0 0.08 0.04 0.08 c0 0 0.04 -0.04 0.04 -0.08 z M287.356 32.08 l0 0.16 c0.04 0 0.04 -0.04 0.04 -0.08 s0 -0.08 -0.04 -0.08 z M287.436 31.84 c0.04 0.08 0.12 0.08 0.24 0.08 c0 -0.08 0.04 -0.32 -0.08 -0.4 c0 0.08 -0.16 0.2 -0.16 0.32 z M287.676 31.08 c0 0.04 0 0.08 0.04 0.12 l0.04 -0.12 l-0.08 0 z M307.676 31.08 c-0.04 0 -0.08 0.04 -0.08 0.08 c0 0 0.04 0.04 0.08 0.04 s0.04 -0.04 0.04 -0.04 c0 -0.04 0 -0.08 -0.04 -0.08 z M307.876 31 c-0.04 0 -0.04 0.04 -0.04 0.08 c0 0 0 0.04 0.04 0.04 l0 -0.12 z M287.436 24.96 c-0.04 0 -0.08 0.04 -0.08 0.08 c0 0 0.04 0.04 0.08 0.04 s0.04 -0.04 0.04 -0.04 c0 -0.04 0 -0.08 -0.04 -0.08 z M287.716 24.96 c0 -0.04 0 -0.04 -0.04 -0.04 l0 0.08 c0.04 0 0.04 0 0.04 -0.04 z M287.436 23.2 l-0.04 -0.04 c-0.04 0 -0.04 0.04 -0.04 0.04 c0 0.04 0 0.08 0.04 0.08 c0 0 0.04 -0.04 0.04 -0.08 z M300.196 19.84 c0 -0.04 -0.04 -0.04 -0.08 -0.04 c0 0 -0.04 0 -0.04 0.04 s0.04 0.08 0.04 0.08 c0.04 0 0.08 -0.04 0.08 -0.08 z M305.876 17.92 c-0.04 0 -0.08 0.04 -0.08 0.08 c0 0 0.04 0.04 0.08 0.04 s0.04 -0.04 0.04 -0.04 c0 -0.04 0 -0.08 -0.04 -0.08 z M291.956 15.920000000000002 c-0.04 0.04 -0.04 0.12 -0.04 0.16 l0.44 0 c-0.04 -0.08 -0.2 -0.16 -0.4 -0.16 z M287.356 14.36 l0 0.16 c0.04 0 0.04 -0.04 0.04 -0.08 s0 -0.08 -0.04 -0.08 z M287.356 12.32 l0 0.16 c0.04 0 0.04 -0.04 0.04 -0.08 s0 -0.08 -0.04 -0.08 z M306.276 10.84 l0 0.4 l0.04 -0.2 c0 -0.08 0 -0.12 -0.04 -0.2 z M285.956 11.079999999999998 c-0.04 0 -0.04 0.04 -0.04 0.08 s0 0.08 0.04 0.08 s0.04 -0.04 0.04 -0.08 s0 -0.08 -0.04 -0.08 z M289.316 11.16 c0 -0.04 -0.04 -0.04 -0.04 -0.04 c-0.04 0 -0.04 0 -0.04 0.04 s0 0.08 0.04 0.08 c0 0 0.04 -0.04 0.04 -0.08 z M284.836 10.760000000000002 c-0.36 0 -0.16 0.28 -0.28 0.32 c0.24 0 0.28 -0.04 0.28 -0.12 c0 -0.04 -0.04 -0.08 -0.04 -0.12 s0.04 -0.04 0.04 -0.08 z M285.796 10.96 l0.12 0.08 l0.04 -0.08 l-0.08 -0.04 z M284.036 10.84 c-0.04 0 -0.04 0.04 -0.04 0.08 c0 0 0 0.04 0.04 0.04 s0.04 -0.04 0.04 -0.04 c0 -0.04 0 -0.08 -0.04 -0.08 z M284.436 10.68 l-0.28 0.08 l0.28 0 l0 -0.08 z M287.996 10.68 c-0.04 0 -0.08 0.04 -0.08 0.04 c0 0.04 0.04 0.04 0.08 0.04 c0 0 0.04 0 0.04 -0.04 z M292.036 10.68 l0 0.08 l0.04 0 z M284.636 10.68 l-0.08 0 c0 0.04 0 0.08 0.04 0.08 c0 0 0.04 -0.04 0.04 -0.08 z M285.556 10.64 c-0.08 0 -0.08 0.08 -0.08 0.08 c0.04 0 0.04 -0.04 0.08 -0.08 z M287.276 10.68 l-0.08 0 c0 0.04 0 0.08 0.04 0.08 c0 0 0.04 -0.04 0.04 -0.08 z M293.796 10.64 c-0.08 0 -0.16 0.04 -0.24 0.04 l0.28 0 z M283.436 10.64 c0 0 0 -0.04 -0.04 -0.04 l0 0.08 c0.04 0 0.04 0 0.04 -0.04 z M295.516 10.52 c0 0.16 0.04 0.08 0.08 0.12 c0 0 0.04 0 0.08 -0.04 l-0.08 -0.16 z M306.116 10.120000000000001 l0 0.48 l0.08 0 c0 -0.12 0.04 -0.48 -0.08 -0.48 z M285.076 10.2 c-0.04 0 -0.08 0.04 -0.08 0.04 c0 0.04 0.04 0.04 0.08 0.04 s0.04 0 0.04 -0.04 c0 0 0 -0.04 -0.04 -0.04 z M283.756 10.2 l-0.04 -0.08 z M284.236 10.04 c-0.08 0.04 -0.12 0.08 -0.12 0.12 l0.04 0.04 l0.08 0 l0 -0.16 z M321.47999999999996 40.2 c0 -0.08 0 -0.16 0.04 -0.24 c0 -0.08 -0.04 -0.16 -0.08 -0.16 c0 0.16 -0.2 0.32 -0.24 0.32 c-0.16 -0.16 -0.36 -0.32 -0.44 -0.52 c0 -1.32 3.64 -0.36 4.28 -1.04 l-0.08 -3.76 l0 -9.56 l0.08 -0.08 c0 -1.48 -0.16 -2.68 -0.16 -4 c0 -2.04 0.16 -5.4 0.16 -6.68 c0 -1.84 -0.04 -2.6 -0.52 -3.28 l-0.48 0 l0 0.16 c-2.32 0 -1.84 0.36 -2.76 0.76 c0.08 0 -1 0.12 -1 0.64 l0.04 0.04 c0 0.08 -0.92 0.08 -0.92 0.68 c-0.92 0 -1.92 2.52 -2.36 2.96 c0 0.36 -0.84 1.24 -0.84 2.04 l0 -0.04 s-0.04 1.52 -0.84 1.52 c-0.64 0 -0.88 0.04 -1.04 -0.44 c0 -3.16 0.48 -1.88 0.48 -9.12 c9.64 -0.48 19 -0.52 23.68 -0.52 c0.68 0 1.28 0.04 1.76 0.04 c0.2 0 0.76 -0.2 0.76 1.2 c0 0.32 0 0.24 -0.08 0.36 c0.16 0.76 -0.04 2.04 0.28 2.84 c-0.04 0.04 -0.12 0.4 -0.12 0.6 c0 0.64 0.36 2.4 0.36 3.88 c0 1 -0.32 1.04 -0.96 1.04 c-0.44 0 -1.28 -2.2 -1.48 -2.84 c0.36 0.04 -0.44 -0.04 -0.44 -0.8 c-0.92 -1.24 -0.6 -1.2 -1.36 -1.96 c-0.64 -1.28 -0.92 -0.8 -1.48 -1.4 l0 0.04 c0.04 0 -0.32 -0.76 -1.08 -0.76 c-0.04 -0.36 -0.48 -0.16 -0.64 -0.52 c-1.44 -0.08 -1.32 -0.48 -1.76 -0.48 l-0.12 0.04 c-0.84 0 -0.56 0 -0.8 -0.04 c-0.08 0 -0.16 0.04 -0.16 0.04 c0 0.04 0.04 0.08 0.04 0.08 c0 0.2 -0.44 0.08 -0.44 1 c0 1.48 0.12 5.16 0.12 9.24 l0 7.6 c0 0.08 -0.08 0.44 -0.08 0.48 c0 -0.04 0 0.2 0.08 0.32 c0 0.2 0.08 3.44 0.08 3.96 c0 1.04 -0.08 2.24 -0.08 3.04 c0 0.88 0.04 1.8 0.32 1.92 c1.96 0 2 -0.08 2.92 -0.08 c0.24 0 0.76 0.08 0.76 0.8 c0 0.28 -0.32 0.52 -0.56 0.68 c-0.36 0 -1.2 -0.32 -1.72 -0.32 c-0.24 0 -0.4 0.12 -0.56 0.12 c-0.32 -0.04 -0.64 -0.12 -0.88 -0.12 l-0.08 0.08 c-0.36 0 -0.8 0.12 -1 0.12 c-0.08 0 -0.2 -0.08 -0.32 -0.08 c-0.04 0 -0.16 0.04 -0.32 0.12 c-0.4 0 -0.84 0 -0.88 -0.12 l-2.08 0 s-0.08 0.12 -0.16 0.12 c0.16 -0.04 -0.24 0.12 -0.24 -0.12 c-0.32 0 -0.56 0.16 -0.96 0.16 c-0.28 0 -0.48 -0.04 -0.6 -0.2 l0.12 -0.08 l-0.68 0 c0 0.16 0 0.32 -0.08 0.4 l-0.08 -0.16 c-0.16 0 -0.16 0.2 -0.28 0.2 c-0.16 0 -0.4 -0.24 -0.44 -0.24 l0.16 -0.12 c0 -0.12 0 -0.16 -0.08 -0.2 l0 0.04 c-0.04 0 -0.08 -0.04 -0.16 -0.04 s-0.2 0.04 -0.24 0.2 l0.08 0.24 l-0.08 0.08 l-1.24 0 z M321.28 39.88 c-0.04 0 -0.08 0.04 -0.08 0.04 c0 0.04 0.04 0.04 0.08 0.04 s0.04 0 0.04 -0.04 c0 0 0 -0.04 -0.04 -0.04 z M324.84 39.8 c-0.04 0 -0.08 0.04 -0.08 0.08 s0.04 0.08 0.08 0.08 c0 0 0.04 -0.04 0.04 -0.08 s-0.04 -0.08 -0.04 -0.08 z M321.15999999999997 39.76 l0 0.04 l0.04 0 z M326 39.76 l-0.08 0.04 l0.16 0 z M325.59999999999997 39.76 c0 -0.04 -0.04 -0.04 -0.08 -0.04 s-0.08 0 -0.08 0.04 s0.04 0.04 0.08 0.04 s0.08 0 0.08 -0.04 z M326.47999999999996 39.76 l0 -0.04 c-0.04 0 -0.04 0 -0.04 0.04 s0 0.04 0.04 0.04 l0 -0.04 z M326.76 39.6 c-0.04 0 -0.08 0.04 -0.08 0.08 s0.04 0.08 0.08 0.08 s0.04 -0.04 0.04 -0.08 s0 -0.08 -0.04 -0.08 z M331.2 39.6 l0 0.08 l0.2 0 c-0.04 -0.08 -0.12 -0.08 -0.2 -0.08 z M333.28 39.6 l-0.08 0.08 l0.08 0 l0 -0.08 z M333.67999999999995 39.56 c-0.08 0 -0.08 0.08 -0.08 0.12 l0.08 0 l0 -0.12 z M321.08 39.36 c0 0.08 0 0.16 0.12 0.16 s0.24 -0.04 0.24 -0.08 c0 -0.28 -0.04 -0.2 -0.24 -0.32 c-0.12 0.08 -0.12 0.08 -0.12 0.24 z M322.4 39.36 c-0.08 0.04 -0.2 0.08 -0.2 0.12 s0.08 0.04 0.12 0.04 c0.08 0 0.12 0 0.12 -0.08 z M323.15999999999997 39.28 c-0.12 0.08 -0.08 0.16 -0.08 0.24 l0.4 0 c-0.08 -0.12 -0.28 -0.12 -0.32 -0.24 z M324.52 39.52 c0 -0.04 -0.04 -0.04 -0.08 -0.04 s-0.08 0 -0.08 0.04 s0.04 0.04 0.08 0.04 s0.08 0 0.08 -0.04 z M332.96 39.52 l0.04 -0.08 z M325.4 38 c0 0 -0.04 0.04 -0.04 0.08 s0.04 0.08 0.04 0.08 s0.04 -0.04 0.04 -0.08 s-0.04 -0.08 -0.04 -0.08 z M330.76 31.119999999999997 c-0.04 0 -0.08 0.04 -0.08 0.08 s0.04 0.08 0.08 0.08 s0.04 -0.04 0.04 -0.08 s0 -0.08 -0.04 -0.08 z M325.28 24.28 c-0.04 0 -0.08 0.04 -0.08 0.08 s0.04 0.08 0.08 0.08 s0.04 -0.04 0.04 -0.08 s0 -0.08 -0.04 -0.08 z M315.56 19.6 c-0.04 0 -0.08 0.04 -0.08 0.08 c0 0 0.04 0.04 0.08 0.04 s0.04 -0.04 0.04 -0.04 c0 -0.04 0 -0.08 -0.04 -0.08 z M341 19.2 c-0.32 0.04 -0.32 0.4 -0.32 0.48 c0.24 -0.24 0.32 -0.24 0.32 -0.48 z M315.68 19.08 l0 0.28 c0.04 -0.04 0.04 -0.2 0.04 -0.28 l-0.04 0 z M339.96 19.04 l0 0.04 l0.16 0 z M341 18.24 l0 0.08 l0.04 0 z M314.96 15.68 c0 0 -0.04 0.08 -0.04 0.16 l0.04 0.08 c0.04 0 0.04 -0.08 0.04 -0.12 s0 -0.08 -0.04 -0.12 z M340.52 15.8 l-0.04 0.04 c0 0.04 0.04 0.08 0.04 0.08 c0.04 0 0.04 -0.04 0.04 -0.08 c0 0 0 -0.04 -0.04 -0.04 z M314.96 15.48 c0 0 -0.04 0 -0.04 0.04 s0.04 0.08 0.04 0.08 c0.04 0 0.04 -0.04 0.04 -0.08 s0 -0.04 -0.04 -0.04 z M315.08 12.2 c-0.08 0.04 -0.12 0.08 -0.16 0.16 c0.16 0 0.16 -0.04 0.16 -0.16 z M319.79999999999995 11.879999999999999 c-0.04 0 -0.08 0 -0.08 0.04 s0.04 0.08 0.08 0.08 s0.04 -0.04 0.04 -0.08 s0 -0.04 -0.04 -0.04 z M319.96 11.48 c0 0 -0.04 0 0.08 0.12 c0.04 -0.04 0.08 -0.08 0.08 -0.12 l-0.16 0 z M321.15999999999997 11.280000000000001 c-0.04 0 -0.08 0.04 -0.08 0.08 s0.04 0.08 0.08 0.08 c0 0 0.04 -0.04 0.04 -0.08 s-0.04 -0.08 -0.04 -0.08 z M323.08 10.96 c0 0.04 -0.12 0.2 -0.2 0.24 l0.28 0 c0 -0.08 0.04 -0.16 -0.08 -0.24 z M324.76 10.96 l0 0.08 l0.08 -0.08 l-0.08 0 z M319.79999999999995 10.8 c-0.04 0 -0.08 0.04 -0.08 0.08 s0.04 0.08 0.08 0.08 s0.04 -0.04 0.04 -0.08 s0 -0.08 -0.04 -0.08 z M320 10.8 c-0.04 0.04 -0.04 0.04 -0.04 0.08 c0 -0.04 0.04 -0.08 0.04 -0.08 z M321.03999999999996 10.719999999999999 l0 0.16 l0.04 -0.08 z M322.08 10.8 c-0.04 0 -0.08 0.04 -0.08 0.04 c0 0.04 0.04 0.04 0.08 0.04 c0 0 0.04 0 0.04 -0.04 z M334.76 10.8 l0 0.08 s0.16 0.08 0.16 -0.08 l-0.16 0 z M314.96 10.8 l0.12 0 l-0.04 0 c0.12 0 0.28 -0.08 0.36 -0.08 c0 0.04 -0.08 -0.28 -0.16 -0.32 c-0.2 0 -0.2 0.28 -0.28 0.4 z M316.44 10.719999999999999 c-0.04 0 -0.04 0.04 -0.04 0.08 l0.08 0 c0 -0.04 0 -0.08 -0.04 -0.08 z M333.76 10.719999999999999 c0.08 0.08 0.16 0.08 0.24 0.08 c-0.04 -0.08 -0.12 -0.08 -0.24 -0.08 z M335.24 10.559999999999999 c-0.04 0 -0.04 0.04 -0.04 0.08 s0 0.08 0.04 0.08 s0.04 -0.04 0.04 -0.08 s0 -0.08 -0.04 -0.08 z M340.35999999999996 10.239999999999998 l0.08 0.08 l0 -0.08 l-0.08 0 z M347.64399999999995 39.36 c0.2 -0.56 0.32 -0.68 0.76 -0.68 c1.32 0 1.6 0.12 2.56 0.12 c0.36 0 0.52 -0.32 0.68 -0.52 l-0.08 -6.16 c0 -0.08 0.08 -0.2 0.08 -0.28 c0 0.04 -0.08 -0.56 -0.08 -0.72 c0 -0.04 -0.04 -0.8 0.08 -1.16 c0 -0.04 -0.08 -0.16 -0.08 -0.24 l0 -2.84 c0.08 -0.08 0.08 -0.2 0.08 -0.28 c0 -0.24 -0.08 -0.36 -0.08 -0.56 c0 0 -0.12 -9.6 -0.12 -12.72 l0.08 -0.16 l0 -1.88 c-0.28 -0.4 -1.2 -0.12 -1.32 -0.32 l-0.24 0.08 l0 0.04 c-0.08 0 -0.32 -0.12 -0.76 -0.12 c-0.08 0 -0.48 0.08 -0.56 0.16 c-0.64 0 -1.08 0.12 -1.08 -0.72 c0 -0.32 0.2 -0.76 1.52 -0.76 c0.16 0 0.52 0.08 0.76 0.08 c0.16 0 2.24 -0.08 2.28 -0.08 c0.28 0 0.76 0.12 0.92 0.12 c0.16 0.04 2.24 -0.16 3.2 -0.16 c0.12 0 0.08 0.36 0.36 0.36 c0 0 0.04 0 0.04 -0.04 s-0.04 -0.12 -0.04 -0.2 c0.44 0 0.88 -0.12 1.52 -0.24 c0.04 0.04 0.2 0.08 0.16 0.12 c0.04 0 0.12 -0.08 0.12 -0.16 c0.04 0 0.24 0.04 0.32 0.12 c0.2 -0.04 0.72 -0.16 0.76 -0.16 c1.56 0 1.64 0.72 1.64 1.12 c0 0.2 -0.28 0.6 -0.48 0.6 c-0.8 0 -2.32 -0.2 -2.68 -0.2 c-0.32 0 -0.48 0.52 -0.52 0.76 l0.04 13.4 c0 0.2 -0.04 0.76 -0.04 0.84 c0 0.04 0.04 -0.04 0.04 0.6 c0 1.4 -0.04 1.96 -0.04 2.72 c0 1.08 0.04 0.96 0.04 1.24 l0 4.64 c0 0.2 -0.12 3.36 0.48 3.48 c0.08 0 1.52 0.04 2.2 -0.04 l0.08 -0.08 l0.72 0 c0.44 0.2 0.52 0.6 0.52 0.76 c0 0.2 -0.32 0.68 -0.44 0.68 c-1.88 0 -4.76 0.12 -5.16 0.12 c0 0 -1.2 -0.08 -1.8 -0.08 c-1.76 0 -4 0.12 -5.28 0.12 c-1.04 0 -1.16 -0.32 -1.16 -0.72 z M348.484 39.84 c0 -0.04 -0.04 -0.04 -0.08 -0.04 s-0.08 0 -0.08 0.04 s0.04 0.08 0.08 0.08 s0.08 -0.04 0.08 -0.08 z M348.724 39.76 c0.16 0 0.24 0.08 0.4 0.08 c0.08 0 0.2 0 0.32 -0.08 c-0.28 0 -0.36 -0.28 -0.48 -0.32 c-0.04 0 -0.24 0 -0.24 0.24 l0 0.08 z M349.52399999999994 39.76 c-0.04 0 -0.08 0.04 -0.08 0.08 s0.04 0.08 0.08 0.08 c0 0 0.04 -0.04 0.04 -0.08 s-0.04 -0.08 -0.04 -0.08 z M350.52399999999994 39.68 l0.08 0.08 c0.2 0 0.24 0 0.32 -0.08 l-0.08 -0.04 c-0.36 0 -0.24 0 -0.32 0.04 z M359.12399999999997 39.36 c-0.24 0.08 -0.2 0.16 -0.2 0.4 c0.2 -0.08 0.16 -0.2 0.24 -0.4 l-0.04 0 z M360.484 39.36 c-0.28 0 -0.28 0.28 -0.32 0.4 l0.48 0 c0 -0.28 -0.08 -0.4 -0.16 -0.4 z M357.484 39.64 l-0.12 0.04 c0 0.04 0 0.04 0.04 0.04 z M357.96399999999994 39.68 l-0.08 -0.04 z M360.96399999999994 39.28 l0 0.24 c0.12 0.04 0.2 -0.16 0.2 -0.24 l-0.2 0 z M348.24399999999997 39.04 c-0.28 0 -0.28 0.28 -0.28 0.4 c0.16 -0.12 0.4 -0.08 0.44 -0.16 c0 -0.04 0.04 -0.24 -0.16 -0.24 z M351.24399999999997 39.32 l0.08 0.12 l0 -0.12 l-0.08 0 z M348.88399999999996 39.12 l0 0.08 l0.08 -0.08 l-0.08 0 z M360.08399999999995 39.04 c0 0.04 -0.04 0.04 -0.04 0.08 s0.04 0.04 0.12 0.08 l0.08 -0.08 l-0.08 -0.16 c-0.04 0 -0.08 0.04 -0.08 0.08 z M360.724 39.12 c0.04 0.08 0.12 0.08 0.2 0.08 c0 -0.04 -0.04 -0.12 -0.04 -0.2 z M352.08399999999995 38.6 c-0.04 0.04 -0.04 0.04 -0.04 0.08 s0.12 0.04 0.2 0.04 l0 -0.12 l-0.16 0 z M356.804 12.8 c-0.04 0 -0.08 0 -0.08 0.04 l0.08 0 l0.04 0 c0 -0.04 0 -0.04 -0.04 -0.04 z M358.84399999999994 10.64 c-0.04 0 -0.08 0.04 -0.08 0.08 s0.04 0.08 0.08 0.08 s0.04 -0.04 0.04 -0.08 s0 -0.08 -0.04 -0.08 z M347.84399999999994 10.280000000000001 c-0.04 0 -0.08 0.04 -0.08 0.08 c0 0 0.04 0.04 0.08 0.04 s0.04 -0.04 0.04 -0.04 c0 -0.04 0 -0.08 -0.04 -0.08 z M350.12399999999997 10.079999999999998 c-0.04 0 -0.08 0.04 -0.08 0.08 c0 0 0.04 0.04 0.08 0.04 l0 -0.12 z M350.68399999999997 10.079999999999998 c0 0.04 -0.04 0.04 -0.04 0.04 c0 0.04 0.04 0.04 0.12 0.08 l0 -0.12 l-0.08 0 z M348.164 10.04 c-0.16 0 -0.12 0.04 -0.12 0.12 c0.08 0 0.16 0 0.2 -0.08 z M377.48799999999994 39.52 c-0.04 0 -0.32 -0.04 -0.36 -0.04 c-1.8 -1.12 -2.16 -1.16 -2.92 -1.48 c0 -0.72 -0.8 -0.48 -1.08 -0.92 c0 -0.28 -1.32 -0.72 -1.32 -1.36 c-0.68 -0.08 -0.36 -0.88 -0.88 -1.08 c0.08 -0.12 -0.84 -0.6 -0.84 -1.12 c0 -0.48 -1.04 -1.6 -1.04 -2.04 c0 -0.56 -0.92 -2.08 -0.92 -3.04 c-0.04 0 -0.48 -2.12 -0.48 -2.84 c0 -0.96 0.12 -1.8 0.12 -2.48 c0 0 0.72 -2.56 0.72 -2.92 c-0.04 0 -0.08 -0.04 -0.08 -0.08 c0 -0.2 0.6 -0.56 0.6 -1.24 c0.44 -1.32 -0.2 0.12 0.76 -1.84 c0.52 0 -0.04 -0.28 0.84 -1.16 l0 0.08 c0.04 0 0.04 -0.96 0.64 -0.96 c0 -0.04 0.4 -1.08 1.36 -1.68 c0.08 0 0.2 -0.52 0.36 -0.52 c2.4 -2 1.92 -1.32 2.84 -2.24 l0 0.08 c0.16 0 1.04 -0.64 1.24 -0.64 c0 0 0.8 -0.68 2.04 -0.68 c0.08 0 0.12 0.04 0.12 0.04 c0.2 0 -0.44 -0.48 3.24 -0.48 c1.52 0 1.4 0.32 2.6 0.32 c-0.04 0 -0.04 -0.04 -0.04 -0.04 c0.04 0 0.52 0.44 0.76 0.44 l1.24 0.16 l0.4 0.32 l0 0.08 c0.16 0 1.2 0.48 1.28 0.48 c0.04 0.04 0.04 0.08 0.08 0.08 c0.12 0 0.24 -0.28 0.6 -0.4 c1 -0.12 0 -0.64 1.92 -0.64 c-0.4 0.2 0.52 -0.32 0.52 0.64 c0 1.84 0.16 3.04 0.16 5.04 c0 0.32 -0.08 0.48 -0.08 0.68 c0 0.16 0.24 0.76 0.24 2.2 c0 0.64 -0.2 0.36 -0.4 0.56 l-1.04 0 c-0.12 0 -0.72 -0.96 -0.76 -1.2 l0 -0.04 c-0.08 0 -0.2 -0.76 -0.52 -1.12 c-0.04 0 -0.28 -1.28 -0.88 -2.12 c0 -0.08 -0.88 -0.88 -0.88 -1.08 c0.04 0 0.04 0 0.04 -0.04 c0 -0.12 -0.76 -0.56 -0.8 -0.68 c0.04 -0.52 -1.12 -0.72 -1.12 -1.2 c-0.4 0 -1 -1.08 -3.12 -1.08 c-2.6 0 -3.28 0.12 -4.16 0.64 c0 0.28 -1.2 0.16 -1.2 0.88 c-0.04 0 -0.44 0.28 -0.52 0.28 c-0.12 0.12 -0.16 0.12 -0.16 0.16 s0.04 0.04 0.04 0.12 l0 0 c-0.08 0 -1.48 2.44 -1.48 3.56 c0 0.16 -0.2 1.08 -0.24 1.12 l-0.12 1.64 l-0.08 0.08 l0 0.84 c-0.12 0 -0.24 1.52 -0.24 1.88 c0 0 0 0.2 0.04 0.56 c0 0 -0.04 0.36 -0.04 0.72 c0 0.4 0 0.92 0.04 1.08 c-0.04 0.08 -0.04 0.16 -0.04 0.24 c0 0.2 0.04 0.64 0.04 0.92 c-0.04 0.04 -0.04 0.12 -0.04 0.24 c0 0.28 0.04 0.72 0.04 1 c0 0.52 -0.04 0.52 -0.04 0.8 s0 0.52 0.16 0.8 c0 0.28 0 0.28 -0.04 0.4 l0.04 0.16 c0 0.48 0.04 0.72 -0.04 0.8 c0.12 3.64 0.84 6.28 1.44 6.56 c0 0.28 -0.32 0.2 1.44 1.96 c0 0 0.84 0.96 1.76 0.96 l-0.04 -0.04 c0.04 0 0.48 0.4 1.72 0.4 c3.04 0 3.28 0.08 4.04 -0.68 c0.24 -0.2 1 -0.28 1.12 -0.32 c0.68 -1.08 0.72 -0.48 1.12 -1.12 c-0.08 -0.24 0.92 -0.92 1.44 -1.6 c0 0 0.2 -1.24 0.76 -1.76 l-0.04 0.04 l0 -0.04 c0 -0.12 0.8 -1.6 0.96 -1.72 c0 0.08 0 0.08 0.04 0.08 s0.2 -1.4 0.96 -1.4 c0.04 0.04 0.08 0.04 0.08 0.04 c0.12 0 0.16 -0.08 0.32 -0.08 c0.12 0 0.32 0.08 0.72 0.44 c0 2.44 -0.24 3.48 -0.24 4.88 c0 0.2 0.04 0.36 0.04 0.44 l-0.04 2.76 c-0.08 0.32 -0.08 0.88 -0.68 0.88 c-1.88 0 -0.2 -0.08 -2.52 -1.04 c-0.16 0 -0.72 0.28 -1.04 0.28 c0 -0.04 -0.04 -0.04 -0.08 -0.04 c-0.2 0 -0.72 0.76 -1.12 0.76 c0.08 0 -2.36 0.04 -2.88 0.48 c-0.36 0 -0.68 -0.08 -1.12 -0.08 c0 0.16 -1 0 -0.96 0.16 c-1.72 0 -2.32 -0.48 -3.24 -0.48 c-0.44 0 -1.08 -0.04 -1.08 -0.36 z M383.24799999999993 39.96 c-0.04 0 -0.08 0.04 -0.08 0.08 s0.04 0.08 0.08 0.08 l0 -0.16 z M383.16799999999995 39.88 c-0.04 0 -0.08 0.04 -0.08 0.08 s0.04 0.08 0.08 0.08 s0.04 -0.04 0.04 -0.08 s0 -0.08 -0.04 -0.08 z M379.5679999999999 39.84 l0.12 0.04 l0.04 -0.04 l-0.16 0 z M378.768 39.64 c-0.04 0 -0.04 0.04 -0.04 0.08 s0 0.08 0.04 0.08 s0.04 -0.04 0.04 -0.08 s0 -0.08 -0.04 -0.08 z M377.48799999999994 39.2 l0 0.08 l0.04 0 z M391.5679999999999 39.08 c-0.04 0 -0.04 0.04 -0.04 0.04 l0.08 0 c0 0.04 0 -0.04 -0.04 -0.04 z M391.80799999999994 34.4 c0 0 0 -0.04 -0.04 -0.04 c0 0 -0.08 0.04 -0.08 0.08 c0.12 0 0.12 0 0.12 -0.04 z M391.8879999999999 34.24 c0 -0.04 -0.04 -0.04 -0.04 -0.04 c-0.04 0 -0.04 0 -0.04 0.04 s0 0.08 0.04 0.08 c0 0 0.04 -0.04 0.04 -0.08 z M369.92799999999994 32.44 c-0.04 -0.04 -0.16 0.08 -0.16 0.2 c0.2 0 0.16 -0.04 0.16 -0.2 z M391.96799999999996 31.04 c0 0.04 -0.04 0.08 -0.04 0.16 s0.04 0.16 0.12 0.16 l0.08 -0.08 c0 -0.12 0.04 -0.24 -0.16 -0.24 z M391.0079999999999 31.04 c0 0 0.08 0.2 0.16 0.24 c0 -0.12 0 -0.32 0.4 -0.32 c-0.04 -0.04 -0.04 -0.08 -0.12 -0.08 c-0.2 0 -0.28 0.16 -0.44 0.16 z M369.12799999999993 30.119999999999997 l0.08 -0.04 z M368.48799999999994 28.36 c-0.12 0 -0.08 0.32 -0.08 0.4 s0 0.08 0.04 0.08 c0.08 0 0.16 -0.04 0.16 -0.08 l0 -0.32 s-0.08 -0.08 -0.12 -0.08 z M368.28799999999995 27.96 c0.08 0 0.04 0.08 0.24 0.08 c0 0 0.04 0 0.16 -0.04 c-0.08 -0.04 -0.32 -0.04 -0.4 -0.04 z M368.40799999999996 24.759999999999998 c0 -0.04 0 -0.04 -0.04 -0.04 l0 0.12 c0.04 0 0.04 -0.04 0.04 -0.08 z M368.36799999999994 23.04 l0.04 0.08 c0.08 -0.04 0.12 -0.04 0.12 -0.16 z M368.92799999999994 20.52 c-0.2 0 -0.2 0.12 -0.2 0.16 c0.12 -0.04 0.24 -0.08 0.28 -0.16 l-0.08 0 z M369.04799999999994 20.04 c-0.04 0 -0.04 0 -0.04 0.04 c0 0 0 0.04 0.04 0.04 s0.04 -0.04 0.04 -0.04 c0 -0.04 0 -0.04 -0.04 -0.04 z M369.04799999999994 19.56 c-0.04 0 -0.04 0.04 -0.04 0.08 s0 0.04 0.04 0.04 s0.04 0 0.04 -0.04 s0 -0.08 -0.04 -0.08 z M372.80799999999994 13.68 c-0.04 0 -0.04 0.04 -0.04 0.04 c0 0.08 0.12 0.24 0.2 0.24 l0 -0.44 c-0.16 0 -0.16 0.04 -0.16 0.16 z M389.12799999999993 13.559999999999999 c-0.04 0 -0.04 0.04 -0.04 0.08 c0 0 0 0.04 0.04 0.04 s0.04 -0.04 0.04 -0.04 c0 -0.04 0 -0.08 -0.04 -0.08 z M391.40799999999996 11.239999999999998 l0.08 0.08 l0 -0.08 l-0.08 0 z M377.36799999999994 10.32 c-0.16 0.08 -0.12 0.16 -0.12 0.24 c0.16 -0.04 0.12 -0.12 0.12 -0.24 z M378.16799999999995 10.399999999999999 c0 0.08 0 0.12 0.04 0.12 l0.04 -0.04 l0 -0.08 l-0.08 0 z M378.64799999999997 10.48 c0 -0.04 -0.04 -0.04 -0.04 -0.04 c-0.04 0 -0.04 0 -0.04 0.04 s0 0.08 0.04 0.08 c0 0 0.04 -0.04 0.04 -0.08 z M377.92799999999994 10.16 c-0.04 0 -0.08 0.04 -0.08 0.08 s0.04 0.08 0.08 0.08 s0.04 -0.04 0.04 -0.08 s0 -0.08 -0.04 -0.08 z M384.12799999999993 9.68 c0.04 0.12 0.08 0.2 0.2 0.24 c-0.04 0 0 -0.24 -0.04 -0.28 c-0.12 0 -0.12 0.04 -0.16 0.04 z M378.72799999999995 9.68 l0 0.08 l0.04 0 z M378.96799999999996 9.64 c-0.04 0 -0.04 0.04 -0.04 0.08 c0 0 0 0.04 0.04 0.04 s0.04 -0.04 0.04 -0.04 c0 -0.04 0 -0.08 -0.04 -0.08 z M379.5679999999999 9.64 l0 0.04 l0.24 0 z M403.25199999999995 38.84 c-0.36 0 -0.56 0.08 -0.8 0.12 c-0.36 0 -0.28 0 -0.32 -0.04 l-0.12 0.04 c0 0.12 0.04 0.12 0.12 0.16 c0 -0.04 -0.12 0.08 -0.2 0.24 l0.04 0 c0 0.04 -1.28 1.04 -1.48 1.04 c-0.92 0 -0.92 -1.08 -0.92 -1.24 c0 -0.08 0 -0.08 0.04 -0.2 c0 -4.48 -0.2 -3.8 -0.2 -6.48 c0 0 0.04 -0.04 0.04 -0.08 c0 -0.12 -0.08 -0.32 -0.08 -0.52 c0 -0.36 0.16 -0.6 1.2 -0.6 c0.12 0 0.28 0.12 0.64 0.76 c0 0.2 0.72 0.8 0.8 1.16 c-0.04 0.04 -0.08 0.08 -0.08 0.12 c0 0.16 0.6 0.4 0.6 0.64 c0 0.04 -0.04 0.08 -0.04 0.08 c0 0.24 0.4 0.44 0.4 0.56 c0.48 0.88 0.52 0.84 1.16 1.48 c0.2 0 1.68 2.64 2.8 2.64 c1.44 0.12 1.72 0.64 3.24 0.64 c0.84 0 0.72 -0.04 1 -0.2 c-0.08 0.08 -0.04 0.08 -0.08 0.08 c0 0 0.28 -0.4 1.6 -0.4 c0.6 0 1.76 -1.12 2 -1.28 c0.08 -0.08 0.48 -0.24 0.48 -0.32 c0 -0.24 0.84 -1.4 0.96 -1.52 c-0.04 -0.08 -0.04 -0.16 -0.04 -0.2 c0 -0.6 0.64 0.32 0.64 -3.4 c-0.04 -0.12 -0.16 -1.4 -0.44 -1.64 c-0.12 0 -0.12 -0.92 -1.08 -1.56 c0 -0.04 0.04 -0.24 0.04 -0.32 c-1.56 -0.08 -0.76 -0.88 -1.8 -0.88 c-1.96 0 -0.4 -0.6 -2.52 -0.6 c-0.2 -0.2 -1.96 -0.16 -2.36 -0.4 c-0.08 0 -0.36 0.08 -0.44 0.08 c-0.48 0 -0.08 -0.4 -1.16 -0.4 c-3.64 -0.2 -1.68 -0.88 -2.92 -0.88 l0 -0.08 c0.12 0 0.28 -0.04 0.4 0.08 c0 0 0.2 -0.08 0.2 -0.12 c0 0 -0.08 -0.08 -0.08 -0.12 l-1.24 0 c-0.4 -0.36 -0.36 -0.6 -0.68 -0.68 c0 -0.04 -0.44 0.04 -1.12 -0.88 c0 -0.28 -0.88 -1.32 -1.08 -1.48 c-0.36 -1.88 -0.8 -3 -0.8 -4.44 c0.08 -0.44 0 -1 0.16 -1.28 l0 0.04 c0.04 0 0.2 -1.36 0.32 -1.28 c-0.04 0 -0.08 -0.04 -0.08 -0.08 c0 -0.32 0.84 -1.2 0.84 -1.52 c-0.04 -0.04 -0.04 -0.08 -0.04 -0.08 c0 -0.28 0.64 -0.56 0.64 -0.68 s0.52 -0.96 0.76 -1.12 c-0.04 0.04 -0.04 0.08 -0.04 0.08 c-0.04 0 1.96 -1.32 2 -1.36 c2.44 -0.4 0.32 -1.08 3.04 -1.08 l3.92 0 c0.08 0 0.92 0 1.32 0.32 c1.64 0.08 1.36 1.04 2.08 1.04 c1.32 0 0.96 -0.08 1.36 -0.48 c-0.16 -0.2 1.08 -0.04 1.2 -0.56 l0.52 0 c0.08 0 0.4 0.32 0.44 0.4 c0.12 4.96 0.36 4.84 0.36 7.44 c0 0.2 -0.36 0.32 -0.52 0.64 l-0.56 0 l0 -0.16 c-0.12 0 -0.96 -0.56 -0.96 -1 l0 0.04 c-0.04 0 -0.32 -1 -0.76 -1.16 l0.04 0 c0 -0.12 -0.52 -0.52 -0.52 -0.8 c-0.6 -0.88 -0.52 -0.84 -1 -1.32 l0.04 0 c0 -0.04 -1 -0.64 -1 -0.92 c0 -0.6 -1.48 -1.32 -1.8 -1.64 c0.12 -0.24 -1.04 -0.56 -2.2 -0.56 c-0.04 0 -0.08 0.04 -0.12 0.04 c-0.4 0 -0.24 -0.68 -0.36 -0.68 c-0.08 0.08 -0.12 0.08 -0.16 0.16 c-0.04 0 -0.2 -0.04 -0.32 -0.08 c-0.24 0.88 -0.64 0.4 -0.76 0.64 c-0.24 -0.12 -0.08 -0.24 -0.24 -0.28 c-0.84 0.4 -0.6 0.36 -2.44 1.28 c-1.2 2.36 -0.56 -0.56 -1.88 3.04 l0 1.76 l0 -0.04 c0.04 0 0.2 1.56 0.56 1.76 c0.08 0.12 0.6 0.52 0.76 0.84 c0.28 0 0.64 1.04 1.8 1.04 c0.48 0.52 2.36 0.4 4.28 0.88 c0.56 0.16 3.48 0.16 4.16 0.96 l-0.04 0 c0 0.08 0.96 0.16 1.12 0.28 c0 -0.08 1.92 1.12 1.92 1.36 c0 0.04 0 0.04 -0.04 0.04 c0.68 0 1.36 1.52 1.64 1.72 c0.2 1.44 0.76 1 0.76 2.12 c0.48 1.52 0.4 1.88 0.4 3.76 c-0.12 0.12 -0.2 1.52 -0.4 1.6 c0 2.04 -1.04 1.92 -1.04 2.8 l-0.52 0.48 c0 0.08 -0.04 0.24 -0.04 0.24 c-0.8 0.72 -0.52 0.84 -0.88 1 c-0.12 0 -0.32 0.6 -1 0.8 c-0.76 1.16 -1.08 0.24 -1.88 1.4 c-3.6 0 0.08 0.88 -3.92 0.88 c-4.56 0 -2.96 -0.12 -4.44 -0.48 c-0.04 0 -0.04 0.04 -0.08 0.04 c-0.24 0 -0.6 -0.32 -0.92 -0.32 c0 -0.04 -0.6 -0.12 -0.6 -0.2 c0 0.04 0.04 0.04 0.04 0.04 c0 -0.04 -0.56 -0.84 -1 -0.84 c-0.08 0 -0.16 0.04 -0.24 0.08 z M410.852 40.28 c-0.04 0 -0.04 0.04 -0.04 0.08 c0 0 0 0.04 0.04 0.04 s0.04 -0.04 0.04 -0.04 c0 -0.04 0 -0.08 -0.04 -0.08 z M407.852 40.2 c-0.04 0 -0.04 0.04 -0.04 0.04 c0 0.04 0 0.04 0.04 0.04 s0.04 0 0.04 -0.04 c0 0 0 -0.04 -0.04 -0.04 z M411.65199999999993 40.2 c-0.04 0 -0.08 0.04 -0.08 0.08 s0.04 0.08 0.08 0.08 s0.04 -0.04 0.04 -0.08 s0 -0.08 -0.04 -0.08 z M410.77199999999993 40.12 c-0.04 0 -0.08 0.04 -0.08 0.08 s0.04 0.08 0.08 0.08 s0.04 -0.04 0.04 -0.08 s0 -0.08 -0.04 -0.08 z M411.65199999999993 40.04 c-0.08 0 -0.12 0 -0.12 0.04 l0.04 0.04 l0.08 0 l0 -0.08 z M408.73199999999997 40.04 c-0.04 0 -0.04 0 -0.04 0.04 c0 0 0 0.04 0.04 0.04 s0.04 -0.04 0.04 -0.04 c0 -0.04 0 -0.04 -0.04 -0.04 z M411.65199999999993 39.76 l0 0.2 c0.08 -0.04 0.16 -0.12 0.2 -0.2 l-0.2 0 z M412.73199999999997 39.64 c-0.36 0 -0.36 0.12 -0.36 0.24 c0.04 0 0.12 -0.04 0.2 -0.08 c0.04 0 0.16 0.04 0.24 0.08 l0.16 -0.08 s0 -0.16 -0.24 -0.16 z M407.972 39.68 l0 0.08 l0.16 0 l0 -0.08 l-0.16 0 z M409.972 39.68 c-0.04 0 -0.04 0.04 -0.04 0.08 c0 0 0 0.04 0.04 0.04 s0.04 -0.04 0.04 -0.04 c0 -0.04 0 -0.08 -0.04 -0.08 z M411.092 39.68 c-0.04 0 -0.08 0.04 -0.08 0.08 c0 0 0.04 0.04 0.08 0.04 s0.04 -0.04 0.04 -0.04 c0 -0.04 0 -0.08 -0.04 -0.08 z M407.412 39.44 c-0.04 0 -0.08 0 -0.08 0.04 l0.08 0 l0.04 0 c0 -0.04 0 -0.04 -0.04 -0.04 z M406.17199999999997 39.32 c-0.04 0 -0.08 0 -0.12 0.04 z M406.05199999999996 39.16 c-0.04 0 -0.08 0.04 -0.08 0.08 s0.04 0.08 0.08 0.08 s0.04 -0.04 0.04 -0.08 s0 -0.08 -0.04 -0.08 z M406.17199999999997 39.12 c-0.04 0 -0.04 0.04 -0.04 0.08 c0 0 0 0.04 0.04 0.04 s0.04 -0.04 0.04 -0.04 c0 -0.04 0 -0.08 -0.04 -0.08 z M400.45199999999994 39.04 c-0.04 0 -0.08 0.04 -0.08 0.08 c0 0 0.04 0.04 0.08 0.04 l0.04 -0.04 c0 -0.04 -0.04 -0.08 -0.04 -0.08 z M406.05199999999996 39.04 c-0.04 0 -0.08 0.04 -0.08 0.08 c0 0 0.04 0.04 0.08 0.04 s0.04 -0.04 0.04 -0.04 c0 -0.04 0 -0.08 -0.04 -0.08 z M399.89199999999994 38.92 c-0.04 0 -0.08 0.04 -0.08 0.04 c0 0.04 0.04 0.08 0.08 0.08 c0 0 0.04 -0.04 0.04 -0.08 z M406.37199999999996 38.96 l-0.08 0 c0 0.04 0 0.08 0.04 0.08 c0 0 0.04 -0.04 0.04 -0.08 z M414.21199999999993 38.92 c-0.04 0 -0.04 0.04 -0.04 0.04 l0.08 0 c0 0.04 0 -0.04 -0.04 -0.04 z M399.89199999999994 38.24 l0 -0.16 l0 0.16 z M416.05199999999996 38.16 c-0.04 0 -0.08 0.04 -0.08 0.08 l0.12 0 c0 -0.04 -0.04 -0.08 -0.04 -0.08 z M416.61199999999997 37.68 l0 0.08 l0.04 0 z M416.49199999999996 37.56 c-0.04 0 -0.08 0.04 -0.08 0.08 c0 0 0.04 0.04 0.08 0.04 s0.04 -0.04 0.04 -0.04 c0 -0.04 0 -0.08 -0.04 -0.08 z M416.73199999999997 37.6 l0.08 -0.04 z M416.972 37.36 l0 0 l-0.08 0.08 c0.04 -0.04 0.04 -0.08 0.08 -0.08 z M400.01199999999994 37.32 c-0.04 0 -0.08 0 -0.08 0.04 c0 0 0.08 0 0.08 -0.04 l0 0 z M399.89199999999994 36.92 l0 0.24 l0.04 0 c0 -0.04 0 -0.2 -0.04 -0.24 z M418.21199999999993 36.04 c-0.04 0 -0.04 0.04 -0.04 0.04 s0 0.04 0.04 0.04 s0.04 -0.04 0.04 -0.04 s0 -0.04 -0.04 -0.04 z M416.972 32.76 l0.08 0.04 l0.08 -0.04 l-0.16 0 z M399.89199999999994 32.12 l-0.08 0 c0 0.04 0 0.08 0.04 0.08 c0 0 0.04 -0.04 0.04 -0.08 z M419.81199999999995 31.439999999999998 l0 -0.04 c-0.04 0 -0.04 0 -0.04 0.04 s0 0.08 0.04 0.08 l0 -0.08 z M403.01199999999994 24.68 c-0.04 0 -0.08 0.04 -0.08 0.08 s0.04 0.08 0.08 0.08 s0.04 -0.04 0.04 -0.08 s0 -0.08 -0.04 -0.08 z M401.37199999999996 22.96 c-0.04 0 -0.08 0.04 -0.08 0.08 c0 0 0.04 0.04 0.08 0.04 l0.04 -0.04 c0 -0.04 -0.04 -0.08 -0.04 -0.08 z M414.21199999999993 22.56 c-0.04 0 -0.04 0.04 -0.04 0.08 c0 0 0 0.04 0.04 0.04 s0.04 -0.04 0.04 -0.04 c0 -0.04 0 -0.08 -0.04 -0.08 z M400.89199999999994 22.4 l0 0.08 l0.08 -0.08 l-0.08 0 z M404.69199999999995 22.04 c0 0 -0.04 0 -0.04 0.04 l0.08 0 c0 -0.04 -0.04 -0.04 -0.04 -0.04 z M408.65199999999993 21.52 c-0.08 0 -0.28 0.08 -0.28 0.12 s0.04 0.04 0.04 0.04 c0.08 0 0.16 -0.08 0.24 -0.16 z M400.13199999999995 20.36 c-0.04 0 -0.08 -0.04 -0.08 0.2 c0 0.04 0.04 0.12 0.04 0.12 c0.04 0 0.08 -0.08 0.08 -0.12 c0 -0.08 -0.04 -0.16 -0.04 -0.2 z M400.01199999999994 19.96 c-0.04 0 -0.08 0.04 -0.08 0.08 s0.04 0.08 0.08 0.08 l0 -0.16 z M417.13199999999995 12.920000000000002 c-0.04 0 -0.08 0.04 -0.08 0.08 c0 0 0.04 0.04 0.08 0.04 s0.04 -0.04 0.04 -0.04 c0 -0.04 0 -0.08 -0.04 -0.08 z M417.69199999999995 12.920000000000002 c-0.04 0 -0.04 0.04 -0.04 0.08 c0 0 0 0.04 0.04 0.04 s0.04 -0.04 0.04 -0.04 c0 -0.04 0 -0.08 -0.04 -0.08 z M417.852 12.920000000000002 c-0.04 0 -0.08 0.04 -0.08 0.08 c0 0 0.04 0.04 0.08 0.04 l0.04 -0.04 c0 -0.04 -0.04 -0.08 -0.04 -0.08 z M408.89199999999994 12.04 l0 -0.44 c0.04 -0.04 0.12 -0.08 0.16 -0.12 l0.08 0.08 c0 0.12 -0.16 0.32 -0.16 0.56 z M417.69199999999995 11.879999999999999 c-0.04 0 -0.04 0.04 -0.04 0.08 c0 0 0 0.04 0.04 0.04 s0.04 -0.04 0.04 -0.04 c0 -0.04 0 -0.08 -0.04 -0.08 z M404.57199999999995 11.68 c-0.2 0.04 -0.2 0.2 -0.2 0.2 c0.04 -0.04 0.2 -0.12 0.2 -0.16 l0 -0.04 z M403.61199999999997 11.48 c0 0.08 0.12 0.12 0.2 0.12 c-0.04 -0.12 -0.2 -0.12 -0.24 -0.12 l0.04 0 z M417.532 11.559999999999999 c0.04 0.04 0.08 0.04 0.12 0.04 c0.16 0 0.2 -0.12 0.2 -0.24 z M404.25199999999995 11.239999999999998 c-0.12 0 -0.08 0.12 -0.08 0.24 l0.08 0 l0 -0.24 z M412.17199999999997 10.879999999999999 c-0.12 0.2 -0.08 0.36 -0.08 0.52 c0.16 -0.04 0.2 -0.24 0.2 -0.44 c-0.04 -0.04 -0.04 -0.08 -0.12 -0.08 z M404.25199999999995 11.04 c-0.04 0 -0.08 0 -0.08 0.04 l0.08 0 l0.04 0 c0 -0.04 0 -0.04 -0.04 -0.04 z M417.13199999999995 10.96 c0 -0.04 -0.04 -0.04 -0.12 -0.04 c-0.04 0 -0.08 0 -0.08 0.04 s0.04 0.08 0.08 0.08 c0.08 0 0.12 -0.04 0.12 -0.08 z M417.292 10.84 c-0.04 0 -0.08 0.04 -0.08 0.04 l0.04 0 l0.04 0 l0 -0.04 z M413.33199999999994 10.84 l-0.04 -0.04 z M410.852 10.8 c0 -0.04 -0.04 -0.04 -0.04 -0.04 s-0.04 0 -0.04 0.04 s0.04 0.04 0.04 0.04 s0.04 0 0.04 -0.04 z M416.292 10.8 c0 -0.04 -0.04 -0.04 -0.04 -0.04 c-0.04 0 -0.04 0 -0.04 0.04 s0 0.04 0.04 0.04 c0 0 0.04 0 0.04 -0.04 z M416.81199999999995 10.719999999999999 c-0.04 0 -0.08 0.04 -0.08 0.08 c0 0 0.04 0.04 0.08 0.04 s0.04 -0.04 0.04 -0.04 c0 -0.04 0 -0.08 -0.04 -0.08 z M417.69199999999995 10.64 l0 0.16 l0.08 -0.08 z M405.532 10.32 c0 0.12 0.08 0.28 0.08 0.4 l0.08 -0.2 s-0.04 -0.16 -0.08 -0.28 z M412.57199999999995 10.48 c-0.04 0 -0.08 0.04 -0.08 0.04 s0.04 0.04 0.08 0.04 s0.04 -0.04 0.04 -0.04 s0 -0.04 -0.04 -0.04 z M416.93199999999996 10.239999999999998 c-0.12 0.04 -0.16 0.16 -0.2 0.28 c0.24 0 0.2 -0.12 0.2 -0.28 z M417.69199999999995 10.48 l0 0.04 l0.08 0 z M417.69199999999995 10.239999999999998 c-0.04 0 -0.04 0.04 -0.04 0.04 c0 0.04 0 0.04 0.04 0.04 s0.04 0 0.04 -0.04 c0 0 0 -0.04 -0.04 -0.04 z M409.33199999999994 10.079999999999998 c-0.04 0.12 0.2 0.16 0.2 0.16 c0.08 -0.12 0.48 0.04 0.44 -0.16 l-0.64 0 z M411.852 10.16 l-0.08 0 c0 0.04 0 0.08 0.04 0.08 c0 0 0.04 -0.04 0.04 -0.08 z M407.092 10 l0 0.08 l0.16 0 l0 -0.08 l-0.16 0 z M407.852 9.920000000000002 c-0.12 0 -0.28 0.12 -0.32 0.16 l0.32 0 l0 -0.16 z M410.852 10 l0 0.08 l0.24 0 z"></path></g>
			</g>
		</svg>
	